<svg xmlns="http://www.w3.org/2000/svg" xmlns:xlink="http://www.w3.org/1999/xlink" width="512" zoomAndPan="magnify" viewBox="0 0 384 383.999986" height="512" preserveAspectRatio="xMidYMid meet" version="1.0"><defs><clipPath id="7276819382"><path d="M 168 55.070312 L 222 55.070312 L 222 143 L 168 143 Z M 168 55.070312 " clip-rule="nonzero"/></clipPath><clipPath id="50f7535691"><path d="M 66 140 L 290 140 L 290 256 L 66 256 Z M 66 140 " clip-rule="nonzero"/></clipPath><clipPath id="dc2d9fe9de"><path d="M 87 73 L 297 73 L 297 179 L 87 179 Z M 87 73 " clip-rule="nonzero"/></clipPath></defs><g clip-path="url(#7276819382)"><path fill="#513e74" d="M 173.199219 142.417969 L 168.398438 142.445312 L 168.398438 67.695312 L 187 63.210938 L 221.515625 54.878906 L 221.515625 142.117188 Z M 173.199219 142.417969 " fill-opacity="1" fill-rule="evenodd"/></g><path fill="#513e74" d="M 271.566406 331.160156 C 263.605469 334.257812 249.441406 336.5 232.164062 336.5 C 230.660156 336.5 229.175781 336.464844 227.71875 336.386719 C 217.773438 335.894531 208.71875 333.707031 201.019531 330.101562 C 194.777344 327.203125 189.410156 323.367188 185.207031 318.8125 C 173.699219 306.394531 168.398438 286.890625 168.398438 258.539062 L 168.398438 176.707031 L 171.640625 175.746094 L 190.320312 170.175781 L 190.378906 170.152344 L 196.054688 168.464844 L 201.011719 167.003906 L 202.367188 166.601562 L 211.480469 164.75 L 221.515625 162.714844 L 221.515625 252.347656 C 221.515625 276.6875 227.65625 290.28125 245.378906 292.011719 C 246.664062 292.140625 248.027344 292.210938 249.441406 292.210938 C 251.550781 292.210938 253.550781 292.140625 255.425781 292.011719 L 270.746094 292.011719 Z M 271.566406 331.160156 " fill-opacity="1" fill-rule="evenodd"/><g clip-path="url(#50f7535691)"><path fill="#513e74" d="M 289.089844 140.8125 L 272.394531 149.40625 L 272.339844 149.441406 L 267.03125 152.179688 L 267.019531 152.179688 L 256.476562 157.625 L 255.476562 158.132812 L 240.484375 165.847656 L 229.160156 171.679688 L 221.515625 175.617188 L 177.765625 198.152344 L 174.171875 200.003906 L 168.40625 202.984375 L 162.859375 205.839844 L 158.292969 208.171875 L 153.089844 210.855469 L 153.027344 210.894531 L 126.101562 224.777344 L 111.191406 232.460938 L 101.414062 237.480469 L 65.898438 255.769531 L 76.667969 203.953125 L 134.191406 186.859375 L 144.816406 183.714844 L 161.035156 178.902344 L 168.40625 176.707031 L 171.640625 175.746094 L 190.320312 170.175781 L 190.378906 170.152344 L 196.054688 168.464844 L 201.015625 167.003906 L 202.367188 166.601562 L 217.222656 162.179688 L 227.828125 159.023438 L 285.425781 141.894531 Z M 289.089844 140.8125 " fill-opacity="1" fill-rule="evenodd"/></g><g clip-path="url(#dc2d9fe9de)"><path fill="#513e74" d="M 404.546875 114.890625 C 404.542969 114.890625 404.535156 114.882812 404.535156 114.878906 C 404.460938 114.777344 404.375 114.675781 404.265625 114.597656 C 404.269531 114.585938 404.257812 114.574219 404.257812 114.574219 C 403.949219 114.277344 403.535156 114.019531 403.039062 113.773438 C 402.578125 113.550781 402.042969 113.351562 401.4375 113.179688 C 401.171875 113.097656 400.90625 113.035156 400.617188 112.960938 C 398.453125 112.460938 395.5625 112.199219 392.117188 112.128906 C 391.953125 112.121094 391.761719 112.132812 391.597656 112.128906 C 390.675781 112.117188 389.722656 112.117188 388.734375 112.128906 C 388.472656 112.128906 388.21875 112.132812 387.945312 112.132812 C 386.039062 112.171875 383.996094 112.257812 381.875 112.394531 C 380.75 112.464844 379.601562 112.546875 378.433594 112.640625 C 377.519531 112.710938 376.605469 112.789062 375.664062 112.875 C 375.230469 112.917969 374.804688 112.957031 374.371094 112.996094 C 373.960938 113.027344 373.554688 113.074219 373.140625 113.113281 L 362.476562 101.289062 L 361.164062 99.828125 L 366.25 99.011719 L 365.714844 93.164062 L 365.605469 92.070312 L 359.386719 93.042969 L 357.738281 93.300781 L 355.699219 93.621094 L 355.707031 93.78125 L 348.628906 85.910156 L 347.152344 84.273438 L 343.34375 80.035156 L 341.472656 78 L 339.355469 75.652344 L 338.769531 74.992188 C 338.253906 74.503906 337.640625 74.144531 336.964844 73.933594 C 336.246094 73.691406 335.441406 73.625 334.621094 73.757812 C 334.121094 73.835938 333.644531 73.992188 333.195312 74.210938 C 332.039062 74.757812 331.097656 75.71875 330.53125 76.871094 C 330.054688 77.824219 329.84375 78.921875 329.957031 80.027344 C 329.984375 80.320312 330.035156 80.625 330.109375 80.882812 C 330.460938 81.5625 330.8125 82.242188 331.152344 82.921875 C 331.242188 83.09375 331.328125 83.269531 331.425781 83.441406 C 331.542969 83.691406 331.679688 83.917969 331.789062 84.144531 L 338.273438 97.703125 C 340.945312 103.695312 343.453125 109.730469 345.734375 115.773438 L 326.039062 120.660156 L 317.121094 122.867188 L 315.289062 123.328125 L 314.226562 123.589844 L 313.210938 123.835938 L 310.890625 121.257812 L 308.753906 118.878906 L 308.75 118.878906 L 304.957031 114.667969 L 302.679688 112.144531 L 301.886719 111.261719 L 300.976562 110.265625 L 300.839844 110.125 L 300.722656 110 L 300.707031 109.984375 C 300.253906 109.558594 299.609375 109.347656 298.941406 109.457031 C 298.164062 109.574219 297.519531 110.097656 297.175781 110.792969 C 297 111.167969 296.902344 111.582031 296.929688 112.015625 C 296.929688 112.058594 296.929688 112.101562 296.9375 112.144531 C 296.949219 112.273438 296.964844 112.402344 297.003906 112.515625 C 297.144531 112.816406 297.304688 113.097656 297.445312 113.398438 C 297.476562 113.46875 297.53125 113.542969 297.550781 113.613281 C 297.613281 113.714844 297.667969 113.816406 297.722656 113.921875 L 298.9375 116.476562 L 300.496094 119.730469 C 301.097656 121.082031 301.6875 122.441406 302.246094 123.8125 C 302.253906 123.847656 302.269531 123.867188 302.285156 123.898438 C 302.714844 124.957031 303.140625 126.03125 303.554688 127.105469 L 293.644531 126.539062 L 290.671875 126.414062 L 278.515625 125.886719 L 274.425781 125.722656 L 263.859375 125.265625 L 255.011719 124.875 L 223.933594 123.519531 L 176.570312 121.449219 L 165.730469 120.984375 L 159.984375 120.742188 L 149.113281 120.261719 L 119.078125 118.972656 L 102.492188 118.25 L 95.449219 117.941406 L 87.367188 156.800781 L 87.363281 156.800781 L 87.265625 157.300781 L 87.414062 157.292969 L 91.039062 156.894531 L 98.460938 156.082031 L 107.902344 155.042969 L 115.328125 154.226562 L 145.785156 150.863281 L 145.855469 150.839844 L 151.761719 150.195312 L 153.675781 149.984375 L 156.917969 149.632812 L 168.601562 148.34375 L 172.539062 147.910156 L 173.777344 147.773438 L 225.882812 142.03125 L 243.707031 140.070312 L 244.710938 139.957031 L 261.667969 138.105469 L 262.789062 137.992188 L 274.726562 136.660156 L 274.734375 136.664062 L 280.742188 135.996094 L 280.804688 135.992188 L 280.808594 135.992188 L 288.660156 135.128906 L 290.683594 134.90625 L 297.082031 134.195312 L 297.09375 134.195312 L 304.3125 133.539062 L 304.484375 135.203125 C 304.035156 138.027344 303.515625 140.878906 302.90625 143.738281 L 301.351562 150.246094 C 301.324219 150.363281 301.285156 150.480469 301.261719 150.601562 C 301.25 150.6875 301.21875 150.765625 301.191406 150.847656 C 301.167969 150.960938 301.136719 151.0625 301.105469 151.167969 C 301.050781 151.390625 300.992188 151.613281 300.933594 151.839844 C 300.917969 151.890625 300.925781 151.941406 300.929688 151.988281 C 300.929688 152.074219 300.929688 152.136719 300.945312 152.210938 C 300.996094 152.683594 301.167969 153.109375 301.457031 153.4375 C 301.90625 154.003906 302.632812 154.304688 303.417969 154.1875 C 304.085938 154.074219 304.664062 153.65625 305.023438 153.097656 L 305.214844 152.738281 L 305.75 151.742188 L 305.890625 151.476562 L 306.503906 150.367188 L 306.984375 149.472656 L 308.199219 147.207031 L 311.050781 141.902344 L 312.660156 138.921875 L 314.308594 135.851562 L 319.140625 135.546875 L 329.175781 134.914062 L 347.53125 133.773438 L 362.398438 132.851562 L 360.691406 133.378906 L 356.121094 134.777344 L 346.914062 137.605469 C 346.023438 142.941406 344.992188 148.304688 343.855469 153.679688 L 340.253906 168.867188 C 340.175781 169.128906 340.101562 169.390625 340.03125 169.660156 C 339.972656 169.863281 339.929688 170.066406 339.867188 170.25 C 339.671875 171.027344 339.46875 171.789062 339.265625 172.5625 C 339.246094 172.855469 339.25 173.148438 339.28125 173.445312 C 339.355469 174.234375 339.59375 174.960938 339.96875 175.582031 C 340.109375 175.839844 340.277344 176.089844 340.460938 176.3125 C 341.542969 177.617188 343.230469 178.320312 345.042969 178.027344 C 345.183594 178 345.332031 177.96875 345.472656 177.929688 C 346.824219 177.585938 347.964844 176.730469 348.730469 175.609375 C 348.753906 175.574219 348.785156 175.53125 348.8125 175.503906 L 349.25 174.667969 L 350.484375 172.359375 L 350.828125 171.722656 L 352.246094 169.144531 L 356.210938 161.773438 L 356.875 160.53125 L 361.242188 152.375 L 361.277344 152.800781 L 371.195312 151.25 L 370.761719 146.742188 L 370.636719 145.285156 L 370.621094 145.128906 L 370.621094 145.101562 L 370.539062 144.304688 L 365.144531 145.148438 L 365.234375 144.972656 L 366.59375 142.453125 L 370.804688 134.625 L 370.949219 134.355469 L 374.59375 127.582031 C 375.003906 127.484375 375.402344 127.394531 375.800781 127.308594 C 378.375 126.714844 380.839844 126.105469 383.179688 125.492188 C 386.660156 124.570312 389.847656 123.605469 392.65625 122.640625 C 392.808594 122.59375 392.988281 122.53125 393.15625 122.472656 C 397.941406 120.789062 401.539062 119.066406 403.414062 117.386719 C 404 116.867188 404.40625 116.347656 404.648438 115.832031 C 404.652344 115.808594 404.664062 115.789062 404.667969 115.757812 C 404.730469 115.613281 404.773438 115.464844 404.816406 115.324219 C 404.734375 115.167969 404.648438 115.027344 404.546875 114.890625 Z M 404.546875 114.890625 " fill-opacity="1" fill-rule="evenodd"/></g></svg>