<svg xmlns="http://www.w3.org/2000/svg" xmlns:xlink="http://www.w3.org/1999/xlink" width="255" zoomAndPan="magnify" viewBox="0 0 191.25 48" height="64" preserveAspectRatio="xMidYMid meet" version="1.0"><defs><g/><clipPath id="5ac40fb6f8"><path d="M 6 0 L 164 0 L 164 47.019531 L 6 47.019531 Z M 6 0 " clip-rule="nonzero"/></clipPath><clipPath id="1b318fd9ca"><path d="M 44 0 L 157.804688 0 L 157.804688 47.019531 L 44 47.019531 Z M 44 0 " clip-rule="nonzero"/></clipPath><clipPath id="4801dbbae8"><rect x="0" width="114" y="0" height="48"/></clipPath><clipPath id="7ec93ed31f"><path d="M 0.285156 3.886719 L 38.941406 3.886719 L 38.941406 43.148438 L 0.285156 43.148438 Z M 0.285156 3.886719 " clip-rule="nonzero"/></clipPath><clipPath id="6661f2050e"><path d="M 14.246094 3.886719 L 24.984375 3.886719 C 32.695312 3.886719 38.941406 10.136719 38.941406 17.847656 L 38.941406 29.175781 C 38.941406 36.882812 32.695312 43.132812 24.984375 43.132812 L 14.246094 43.132812 C 6.535156 43.132812 0.285156 36.882812 0.285156 29.175781 L 0.285156 17.847656 C 0.285156 10.136719 6.535156 3.886719 14.246094 3.886719 Z M 14.246094 3.886719 " clip-rule="nonzero"/></clipPath><clipPath id="6e816da049"><path d="M 0.285156 0.886719 L 38.941406 0.886719 L 38.941406 40.148438 L 0.285156 40.148438 Z M 0.285156 0.886719 " clip-rule="nonzero"/></clipPath><clipPath id="bfda47b2d8"><path d="M 14.246094 0.886719 L 24.984375 0.886719 C 32.695312 0.886719 38.941406 7.136719 38.941406 14.847656 L 38.941406 26.175781 C 38.941406 33.882812 32.695312 40.132812 24.984375 40.132812 L 14.246094 40.132812 C 6.535156 40.132812 0.285156 33.882812 0.285156 26.175781 L 0.285156 14.847656 C 0.285156 7.136719 6.535156 0.886719 14.246094 0.886719 Z M 14.246094 0.886719 " clip-rule="nonzero"/></clipPath><clipPath id="0b71f17b75"><rect x="0" width="39" y="0" height="41"/></clipPath><clipPath id="131705e05e"><path d="M 16 7.433594 L 24 7.433594 L 24 18 L 16 18 Z M 16 7.433594 " clip-rule="nonzero"/></clipPath><clipPath id="9eda4a07ca"><path d="M 16 20 L 29 20 L 29 40.40625 L 16 40.40625 Z M 16 20 " clip-rule="nonzero"/></clipPath><clipPath id="92403cb9c2"><path d="M 4.820312 17 L 31.976562 17 L 31.976562 31 L 4.820312 31 Z M 4.820312 17 " clip-rule="nonzero"/></clipPath><clipPath id="9612074606"><path d="M 7 9 L 31.976562 9 L 31.976562 22 L 7 22 Z M 7 9 " clip-rule="nonzero"/></clipPath><clipPath id="7f2b26446b"><rect x="0" width="158" y="0" height="48"/></clipPath></defs><g clip-path="url(#5ac40fb6f8)"><g transform="matrix(1, 0, 0, 1, 6, 0.000000000000005041)"><g clip-path="url(#7f2b26446b)"><g clip-path="url(#1b318fd9ca)"><g transform="matrix(1, 0, 0, 1, 44, 0.000000000000005041)"><g clip-path="url(#4801dbbae8)"><g fill="#f9f8fc" fill-opacity="1"><g transform="translate(0.681904, 35.606814)"><g><path d="M 9.359375 0 C 7.453125 0 6.015625 -0.476562 5.046875 -1.4375 C 4.078125 -2.40625 3.59375 -3.8125 3.59375 -5.65625 L 3.59375 -15.15625 L 0.84375 -15.15625 L 0.84375 -19.40625 L 2.21875 -19.40625 C 2.957031 -19.40625 3.460938 -19.582031 3.734375 -19.9375 C 4.003906 -20.300781 4.140625 -20.816406 4.140625 -21.484375 L 4.140625 -24.65625 L 9.0625 -24.65625 L 9.0625 -19.40625 L 12.90625 -19.40625 L 12.90625 -15.15625 L 9.0625 -15.15625 L 9.0625 -4.25 L 12.609375 -4.25 L 12.609375 0 Z M 9.359375 0 "/></g></g></g><g fill="#f9f8fc" fill-opacity="1"><g transform="translate(14.840509, 35.606814)"><g><path d="M 16.890625 0 C 15.910156 0 15.09375 -0.304688 14.4375 -0.921875 C 13.78125 -1.535156 13.367188 -2.363281 13.203125 -3.40625 L 12.96875 -3.40625 C 12.675781 -2.144531 12.023438 -1.1875 11.015625 -0.53125 C 10.003906 0.113281 8.757812 0.4375 7.28125 0.4375 C 5.332031 0.4375 3.835938 -0.078125 2.796875 -1.109375 C 1.765625 -2.140625 1.25 -3.507812 1.25 -5.21875 C 1.25 -7.257812 1.992188 -8.78125 3.484375 -9.78125 C 4.984375 -10.78125 7.015625 -11.28125 9.578125 -11.28125 L 12.640625 -11.28125 L 12.640625 -12.5 C 12.640625 -13.4375 12.394531 -14.179688 11.90625 -14.734375 C 11.414062 -15.285156 10.585938 -15.5625 9.421875 -15.5625 C 8.335938 -15.5625 7.472656 -15.328125 6.828125 -14.859375 C 6.191406 -14.390625 5.664062 -13.859375 5.25 -13.265625 L 2 -16.15625 C 2.78125 -17.3125 3.769531 -18.21875 4.96875 -18.875 C 6.164062 -19.53125 7.785156 -19.859375 9.828125 -19.859375 C 12.585938 -19.859375 14.65625 -19.253906 16.03125 -18.046875 C 17.414062 -16.835938 18.109375 -15.070312 18.109375 -12.75 L 18.109375 -4.25 L 19.921875 -4.25 L 19.921875 0 Z M 9.3125 -3.359375 C 10.226562 -3.359375 11.007812 -3.554688 11.65625 -3.953125 C 12.3125 -4.347656 12.640625 -4.988281 12.640625 -5.875 L 12.640625 -8.171875 L 9.984375 -8.171875 C 7.835938 -8.171875 6.765625 -7.441406 6.765625 -5.984375 L 6.765625 -5.4375 C 6.765625 -4.71875 6.984375 -4.191406 7.421875 -3.859375 C 7.867188 -3.523438 8.5 -3.359375 9.3125 -3.359375 Z M 9.3125 -3.359375 "/></g></g></g><g fill="#f9f8fc" fill-opacity="1"><g transform="translate(35.875092, 35.606814)"><g><path d="M 2.546875 -19.40625 L 8.015625 -19.40625 L 8.015625 -16.15625 L 8.203125 -16.15625 C 8.472656 -17.238281 9.09375 -18.125 10.0625 -18.8125 C 11.039062 -19.507812 12.160156 -19.859375 13.421875 -19.859375 C 15.878906 -19.859375 17.738281 -18.992188 19 -17.265625 C 20.257812 -15.535156 20.890625 -13.019531 20.890625 -9.71875 C 20.890625 -6.414062 20.257812 -3.894531 19 -2.15625 C 17.738281 -0.425781 15.878906 0.4375 13.421875 0.4375 C 12.773438 0.4375 12.171875 0.34375 11.609375 0.15625 C 11.046875 -0.0195312 10.535156 -0.273438 10.078125 -0.609375 C 9.617188 -0.941406 9.226562 -1.335938 8.90625 -1.796875 C 8.582031 -2.253906 8.347656 -2.738281 8.203125 -3.25 L 8.015625 -3.25 L 8.015625 7.390625 L 2.546875 7.390625 Z M 11.609375 -4 C 12.640625 -4 13.492188 -4.359375 14.171875 -5.078125 C 14.847656 -5.804688 15.1875 -6.785156 15.1875 -8.015625 L 15.1875 -11.390625 C 15.1875 -12.617188 14.847656 -13.597656 14.171875 -14.328125 C 13.492188 -15.054688 12.640625 -15.421875 11.609375 -15.421875 C 10.578125 -15.421875 9.71875 -15.164062 9.03125 -14.65625 C 8.351562 -14.15625 8.015625 -13.457031 8.015625 -12.5625 L 8.015625 -6.84375 C 8.015625 -5.957031 8.351562 -5.257812 9.03125 -4.75 C 9.71875 -4.25 10.578125 -4 11.609375 -4 Z M 11.609375 -4 "/></g></g></g><g fill="#f9f8fc" fill-opacity="1"><g transform="translate(58.351414, 35.606814)"><g><path d="M 2.546875 -19.40625 L 8.015625 -19.40625 L 8.015625 -16.15625 L 8.203125 -16.15625 C 8.472656 -17.238281 9.09375 -18.125 10.0625 -18.8125 C 11.039062 -19.507812 12.160156 -19.859375 13.421875 -19.859375 C 15.878906 -19.859375 17.738281 -18.992188 19 -17.265625 C 20.257812 -15.535156 20.890625 -13.019531 20.890625 -9.71875 C 20.890625 -6.414062 20.257812 -3.894531 19 -2.15625 C 17.738281 -0.425781 15.878906 0.4375 13.421875 0.4375 C 12.773438 0.4375 12.171875 0.34375 11.609375 0.15625 C 11.046875 -0.0195312 10.535156 -0.273438 10.078125 -0.609375 C 9.617188 -0.941406 9.226562 -1.335938 8.90625 -1.796875 C 8.582031 -2.253906 8.347656 -2.738281 8.203125 -3.25 L 8.015625 -3.25 L 8.015625 7.390625 L 2.546875 7.390625 Z M 11.609375 -4 C 12.640625 -4 13.492188 -4.359375 14.171875 -5.078125 C 14.847656 -5.804688 15.1875 -6.785156 15.1875 -8.015625 L 15.1875 -11.390625 C 15.1875 -12.617188 14.847656 -13.597656 14.171875 -14.328125 C 13.492188 -15.054688 12.640625 -15.421875 11.609375 -15.421875 C 10.578125 -15.421875 9.71875 -15.164062 9.03125 -14.65625 C 8.351562 -14.15625 8.015625 -13.457031 8.015625 -12.5625 L 8.015625 -6.84375 C 8.015625 -5.957031 8.351562 -5.257812 9.03125 -4.75 C 9.71875 -4.25 10.578125 -4 11.609375 -4 Z M 11.609375 -4 "/></g></g></g><g fill="#f9f8fc" fill-opacity="1"><g transform="translate(80.827736, 35.606814)"><g><path d="M 5.28125 -21.484375 C 4.175781 -21.484375 3.367188 -21.734375 2.859375 -22.234375 C 2.359375 -22.742188 2.109375 -23.390625 2.109375 -24.171875 L 2.109375 -24.984375 C 2.109375 -25.773438 2.359375 -26.421875 2.859375 -26.921875 C 3.367188 -27.429688 4.175781 -27.6875 5.28125 -27.6875 C 6.394531 -27.6875 7.203125 -27.429688 7.703125 -26.921875 C 8.210938 -26.421875 8.46875 -25.773438 8.46875 -24.984375 L 8.46875 -24.171875 C 8.46875 -23.390625 8.210938 -22.742188 7.703125 -22.234375 C 7.203125 -21.734375 6.394531 -21.484375 5.28125 -21.484375 Z M 2.546875 -19.40625 L 8.015625 -19.40625 L 8.015625 0 L 2.546875 0 Z M 2.546875 -19.40625 "/></g></g></g><g fill="#f9f8fc" fill-opacity="1"><g transform="translate(91.400481, 35.606814)"><g><path d="M 2.546875 -27.359375 L 8.015625 -27.359375 L 8.015625 -16.125 L 8.25 -16.125 C 8.59375 -17.132812 9.191406 -18.007812 10.046875 -18.75 C 10.910156 -19.488281 12.109375 -19.859375 13.640625 -19.859375 C 15.640625 -19.859375 17.148438 -19.191406 18.171875 -17.859375 C 19.191406 -16.523438 19.703125 -14.625 19.703125 -12.15625 L 19.703125 0 L 14.234375 0 L 14.234375 -11.71875 C 14.234375 -12.976562 14.035156 -13.910156 13.640625 -14.515625 C 13.242188 -15.117188 12.539062 -15.421875 11.53125 -15.421875 C 11.09375 -15.421875 10.660156 -15.363281 10.234375 -15.25 C 9.816406 -15.132812 9.441406 -14.953125 9.109375 -14.703125 C 8.773438 -14.460938 8.507812 -14.160156 8.3125 -13.796875 C 8.113281 -13.441406 8.015625 -13.03125 8.015625 -12.5625 L 8.015625 0 L 2.546875 0 Z M 2.546875 -27.359375 "/></g></g></g></g></g></g><g clip-path="url(#7ec93ed31f)"><g clip-path="url(#6661f2050e)"><g transform="matrix(1, 0, 0, 1, -0.000000000000001776, 3)"><g clip-path="url(#0b71f17b75)"><g clip-path="url(#6e816da049)"><g clip-path="url(#bfda47b2d8)"><path fill="#f9f8fc" d="M 0.285156 0.886719 L 38.941406 0.886719 L 38.941406 40.148438 L 0.285156 40.148438 Z M 0.285156 0.886719 " fill-opacity="1" fill-rule="nonzero"/></g></g></g></g></g></g><g clip-path="url(#131705e05e)"><path fill="#513e74" d="M 17.40625 17.6875 L 16.84375 17.691406 L 16.84375 8.914062 L 19.027344 8.386719 L 23.078125 7.410156 L 23.078125 17.652344 Z M 17.40625 17.6875 " fill-opacity="1" fill-rule="evenodd"/></g><g clip-path="url(#9eda4a07ca)"><path fill="#513e74" d="M 28.953125 39.84375 C 28.019531 40.207031 26.355469 40.46875 24.328125 40.46875 C 24.152344 40.46875 23.976562 40.464844 23.804688 40.457031 C 22.640625 40.398438 21.574219 40.140625 20.671875 39.71875 C 19.9375 39.378906 19.308594 38.929688 18.816406 38.394531 C 17.464844 36.9375 16.84375 34.644531 16.84375 31.316406 L 16.84375 21.710938 L 17.222656 21.597656 L 19.417969 20.945312 L 19.421875 20.941406 L 20.089844 20.746094 L 20.671875 20.574219 L 20.828125 20.523438 L 21.898438 20.308594 L 23.078125 20.070312 L 23.078125 30.589844 C 23.078125 33.449219 23.800781 35.042969 25.878906 35.246094 C 26.03125 35.261719 26.191406 35.269531 26.355469 35.269531 C 26.605469 35.269531 26.839844 35.261719 27.058594 35.246094 L 28.855469 35.246094 Z M 28.953125 39.84375 " fill-opacity="1" fill-rule="evenodd"/></g><g clip-path="url(#92403cb9c2)"><path fill="#513e74" d="M 31.011719 17.5 L 29.050781 18.507812 L 29.042969 18.511719 L 28.421875 18.832031 L 28.417969 18.832031 L 27.183594 19.472656 L 27.066406 19.53125 L 25.304688 20.4375 L 23.976562 21.121094 L 23.078125 21.582031 L 17.941406 24.230469 L 17.519531 24.445312 L 16.84375 24.796875 L 16.191406 25.132812 L 15.65625 25.40625 L 15.046875 25.71875 L 15.039062 25.726562 L 11.878906 27.355469 L 10.128906 28.257812 L 8.980469 28.847656 L 4.808594 30.992188 L 6.074219 24.910156 L 12.828125 22.902344 L 14.074219 22.535156 L 15.976562 21.96875 L 16.84375 21.710938 L 17.222656 21.597656 L 19.417969 20.945312 L 19.421875 20.941406 L 20.089844 20.746094 L 20.671875 20.574219 L 20.828125 20.523438 L 22.574219 20.007812 L 23.820312 19.636719 L 30.582031 17.625 Z M 31.011719 17.5 " fill-opacity="1" fill-rule="evenodd"/></g><g clip-path="url(#9612074606)"><path fill="#513e74" d="M 44.5625 14.453125 C 44.554688 14.441406 44.542969 14.429688 44.53125 14.421875 C 44.53125 14.417969 44.53125 14.417969 44.53125 14.417969 C 44.492188 14.382812 44.445312 14.351562 44.386719 14.324219 C 44.332031 14.296875 44.269531 14.273438 44.199219 14.253906 C 44.167969 14.246094 44.136719 14.238281 44.101562 14.230469 C 43.847656 14.167969 43.507812 14.140625 43.105469 14.128906 C 43.085938 14.128906 43.0625 14.132812 43.042969 14.128906 C 42.9375 14.128906 42.824219 14.128906 42.707031 14.128906 C 42.675781 14.128906 42.648438 14.132812 42.617188 14.132812 C 42.390625 14.136719 42.152344 14.144531 41.902344 14.164062 C 41.769531 14.171875 41.636719 14.179688 41.5 14.191406 C 41.390625 14.199219 41.285156 14.207031 41.171875 14.21875 C 41.121094 14.222656 41.074219 14.226562 41.023438 14.234375 C 40.972656 14.238281 40.925781 14.242188 40.878906 14.246094 L 39.625 12.859375 L 39.472656 12.6875 L 40.070312 12.589844 L 40.003906 11.90625 L 39.996094 11.800781 L 39.992188 11.777344 L 39.261719 11.890625 L 39.070312 11.921875 L 38.828125 11.957031 L 38.832031 11.976562 L 38 11.054688 L 37.828125 10.859375 L 37.378906 10.363281 L 37.160156 10.125 L 36.910156 9.847656 L 36.84375 9.769531 C 36.78125 9.714844 36.710938 9.671875 36.628906 9.648438 C 36.546875 9.617188 36.453125 9.609375 36.355469 9.625 C 36.296875 9.636719 36.242188 9.652344 36.1875 9.679688 C 36.050781 9.742188 35.941406 9.855469 35.875 9.992188 C 35.820312 10.105469 35.792969 10.234375 35.808594 10.363281 C 35.8125 10.398438 35.816406 10.433594 35.824219 10.464844 C 35.867188 10.542969 35.910156 10.621094 35.949219 10.703125 C 35.960938 10.722656 35.96875 10.742188 35.980469 10.761719 C 35.992188 10.792969 36.011719 10.820312 36.023438 10.847656 L 36.785156 12.4375 C 37.097656 13.140625 37.390625 13.847656 37.660156 14.558594 L 35.347656 15.132812 L 34.300781 15.390625 L 34.085938 15.445312 L 33.960938 15.476562 L 33.84375 15.503906 L 33.570312 15.203125 L 33.320312 14.921875 L 32.875 14.429688 L 32.605469 14.132812 L 32.511719 14.027344 L 32.40625 13.914062 L 32.390625 13.894531 L 32.375 13.878906 C 32.320312 13.828125 32.246094 13.804688 32.167969 13.816406 C 32.074219 13.832031 32 13.894531 31.960938 13.972656 C 31.9375 14.019531 31.929688 14.066406 31.929688 14.117188 C 31.929688 14.121094 31.929688 14.128906 31.933594 14.132812 C 31.933594 14.148438 31.933594 14.164062 31.941406 14.175781 C 31.957031 14.210938 31.976562 14.246094 31.992188 14.28125 C 31.996094 14.289062 32 14.296875 32.003906 14.304688 C 32.011719 14.316406 32.015625 14.328125 32.023438 14.339844 L 32.167969 14.640625 L 32.347656 15.023438 C 32.421875 15.183594 32.488281 15.339844 32.554688 15.503906 C 32.554688 15.507812 32.558594 15.507812 32.558594 15.511719 C 32.609375 15.636719 32.660156 15.761719 32.707031 15.890625 L 31.546875 15.824219 L 31.195312 15.808594 L 29.769531 15.746094 L 29.289062 15.726562 L 28.046875 15.671875 L 27.011719 15.628906 L 23.363281 15.46875 L 17.800781 15.226562 L 16.527344 15.171875 L 15.855469 15.140625 L 14.578125 15.085938 L 11.054688 14.933594 L 9.105469 14.847656 L 8.277344 14.8125 L 7.332031 19.375 L 7.328125 19.375 L 7.320312 19.433594 L 7.335938 19.433594 L 7.761719 19.386719 L 8.632812 19.289062 L 9.742188 19.167969 L 10.613281 19.074219 L 14.1875 18.679688 L 14.191406 18.675781 L 14.195312 18.675781 L 14.890625 18.597656 L 15.113281 18.574219 L 15.496094 18.535156 L 16.867188 18.382812 L 17.328125 18.332031 L 17.472656 18.316406 L 23.589844 17.640625 L 25.683594 17.410156 L 25.800781 17.398438 L 27.792969 17.179688 L 27.921875 17.167969 L 29.324219 17.011719 L 30.03125 16.933594 L 30.039062 16.933594 L 30.960938 16.832031 L 31.199219 16.804688 L 31.949219 16.722656 L 32.796875 16.644531 L 32.816406 16.839844 C 32.765625 17.171875 32.703125 17.503906 32.632812 17.839844 L 32.449219 18.605469 C 32.445312 18.617188 32.441406 18.632812 32.441406 18.648438 C 32.4375 18.65625 32.433594 18.667969 32.429688 18.675781 C 32.429688 18.6875 32.425781 18.699219 32.421875 18.714844 C 32.414062 18.738281 32.40625 18.765625 32.402344 18.792969 C 32.398438 18.796875 32.398438 18.804688 32.402344 18.808594 C 32.402344 18.820312 32.402344 18.828125 32.402344 18.835938 C 32.410156 18.890625 32.429688 18.941406 32.460938 18.980469 C 32.515625 19.046875 32.601562 19.082031 32.691406 19.066406 C 32.769531 19.054688 32.839844 19.003906 32.882812 18.941406 L 32.902344 18.898438 L 32.964844 18.78125 L 32.984375 18.75 L 33.054688 18.621094 L 33.109375 18.515625 L 33.253906 18.25 L 33.589844 17.625 L 33.777344 17.277344 L 33.972656 16.914062 L 34.539062 16.878906 L 35.714844 16.804688 L 37.871094 16.671875 L 39.617188 16.5625 L 39.417969 16.625 L 38.878906 16.789062 L 37.796875 17.121094 C 37.695312 17.746094 37.574219 18.378906 37.4375 19.007812 L 37.015625 20.792969 C 37.007812 20.820312 37 20.851562 36.992188 20.882812 C 36.984375 20.90625 36.980469 20.933594 36.972656 20.953125 C 36.949219 21.042969 36.925781 21.132812 36.902344 21.226562 C 36.898438 21.257812 36.898438 21.292969 36.902344 21.328125 C 36.910156 21.421875 36.9375 21.507812 36.984375 21.578125 C 37 21.609375 37.019531 21.640625 37.039062 21.664062 C 37.167969 21.820312 37.367188 21.902344 37.578125 21.867188 C 37.59375 21.863281 37.613281 21.859375 37.628906 21.855469 C 37.789062 21.816406 37.921875 21.714844 38.011719 21.582031 C 38.015625 21.578125 38.019531 21.574219 38.019531 21.570312 L 38.074219 21.472656 L 38.21875 21.203125 L 38.257812 21.125 L 38.425781 20.824219 L 38.890625 19.957031 L 38.96875 19.8125 L 39.480469 18.855469 L 39.484375 18.90625 L 40.648438 18.722656 L 40.597656 18.195312 L 40.582031 18.023438 L 40.582031 18 L 40.570312 17.90625 L 39.9375 18.007812 L 39.949219 17.984375 L 40.109375 17.691406 L 40.601562 16.773438 L 40.621094 16.738281 L 41.046875 15.945312 C 41.097656 15.933594 41.144531 15.921875 41.191406 15.914062 C 41.492188 15.84375 41.78125 15.769531 42.054688 15.699219 C 42.464844 15.589844 42.839844 15.476562 43.167969 15.363281 C 43.1875 15.359375 43.207031 15.351562 43.226562 15.34375 C 43.789062 15.148438 44.210938 14.945312 44.429688 14.75 C 44.5 14.6875 44.546875 14.625 44.574219 14.566406 C 44.578125 14.5625 44.578125 14.5625 44.578125 14.558594 C 44.585938 14.539062 44.589844 14.523438 44.59375 14.507812 C 44.585938 14.488281 44.574219 14.472656 44.5625 14.453125 Z M 44.5625 14.453125 " fill-opacity="1" fill-rule="evenodd"/></g></g></g></g></svg>