<svg xmlns="http://www.w3.org/2000/svg" xmlns:xlink="http://www.w3.org/1999/xlink" width="255" zoomAndPan="magnify" viewBox="0 0 191.25 48" height="64" preserveAspectRatio="xMidYMid meet" version="1.0"><defs><filter x="0%" y="0%" width="100%" height="100%" id="7cea279ee8"><feColorMatrix values="0 0 0 0 1 0 0 0 0 1 0 0 0 0 1 0 0 0 1 0" color-interpolation-filters="sRGB"/></filter><g/><clipPath id="b13862a16f"><path d="M 1.585938 0 L 188.929688 0 L 188.929688 47.019531 L 1.585938 47.019531 Z M 1.585938 0 " clip-rule="nonzero"/></clipPath><clipPath id="a2fb590a8c"><path d="M 0.585938 0 L 187.929688 0 L 187.929688 47.019531 L 0.585938 47.019531 Z M 0.585938 0 " clip-rule="nonzero"/></clipPath><clipPath id="76dae4a012"><path d="M 0.585938 0 L 187.929688 0 L 187.929688 47.019531 L 0.585938 47.019531 Z M 0.585938 0 " clip-rule="nonzero"/></clipPath><clipPath id="bca93df2f0"><path d="M 0.585938 0 L 187.929688 0 L 187.929688 47.019531 L 0.585938 47.019531 Z M 0.585938 0 " clip-rule="nonzero"/></clipPath><linearGradient x1="135.156006" gradientTransform="matrix(0.474095, 0, 0, 0.473386, 54.303053, 4.586465)" y1="-9.688628" x2="135.156006" gradientUnits="userSpaceOnUse" y2="89.639171" id="1a9b6ace67"><stop stop-opacity="1" stop-color="rgb(18.798828%, 15.444946%, 26.727295%)" offset="0"/><stop stop-opacity="1" stop-color="rgb(18.885803%, 15.504456%, 26.852417%)" offset="0.015625"/><stop stop-opacity="1" stop-color="rgb(19.059753%, 15.623474%, 27.104187%)" offset="0.03125"/><stop stop-opacity="1" stop-color="rgb(19.233704%, 15.742493%, 27.355957%)" offset="0.046875"/><stop stop-opacity="1" stop-color="rgb(19.407654%, 15.861511%, 27.607727%)" offset="0.0625"/><stop stop-opacity="1" stop-color="rgb(19.581604%, 15.98053%, 27.859497%)" offset="0.078125"/><stop stop-opacity="1" stop-color="rgb(19.755554%, 16.099548%, 28.109741%)" offset="0.09375"/><stop stop-opacity="1" stop-color="rgb(19.929504%, 16.218567%, 28.361511%)" offset="0.109375"/><stop stop-opacity="1" stop-color="rgb(20.101929%, 16.337585%, 28.613281%)" offset="0.125"/><stop stop-opacity="1" stop-color="rgb(20.275879%, 16.456604%, 28.865051%)" offset="0.140625"/><stop stop-opacity="1" stop-color="rgb(20.449829%, 16.575623%, 29.116821%)" offset="0.15625"/><stop stop-opacity="1" stop-color="rgb(20.623779%, 16.694641%, 29.368591%)" offset="0.171875"/><stop stop-opacity="1" stop-color="rgb(20.797729%, 16.81366%, 29.620361%)" offset="0.1875"/><stop stop-opacity="1" stop-color="rgb(20.97168%, 16.931152%, 29.872131%)" offset="0.203125"/><stop stop-opacity="1" stop-color="rgb(21.14563%, 17.050171%, 30.123901%)" offset="0.21875"/><stop stop-opacity="1" stop-color="rgb(21.31958%, 17.169189%, 30.375671%)" offset="0.234375"/><stop stop-opacity="1" stop-color="rgb(21.49353%, 17.288208%, 30.627441%)" offset="0.25"/><stop stop-opacity="1" stop-color="rgb(21.66748%, 17.407227%, 30.879211%)" offset="0.265625"/><stop stop-opacity="1" stop-color="rgb(21.841431%, 17.526245%, 31.130981%)" offset="0.28125"/><stop stop-opacity="1" stop-color="rgb(22.015381%, 17.645264%, 31.382751%)" offset="0.296875"/><stop stop-opacity="1" stop-color="rgb(22.189331%, 17.764282%, 31.634521%)" offset="0.3125"/><stop stop-opacity="1" stop-color="rgb(22.363281%, 17.883301%, 31.886292%)" offset="0.328125"/><stop stop-opacity="1" stop-color="rgb(22.537231%, 18.002319%, 32.138062%)" offset="0.34375"/><stop stop-opacity="1" stop-color="rgb(22.711182%, 18.121338%, 32.389832%)" offset="0.359375"/><stop stop-opacity="1" stop-color="rgb(22.885132%, 18.240356%, 32.641602%)" offset="0.375"/><stop stop-opacity="1" stop-color="rgb(23.059082%, 18.359375%, 32.893372%)" offset="0.390625"/><stop stop-opacity="1" stop-color="rgb(23.233032%, 18.478394%, 33.145142%)" offset="0.40625"/><stop stop-opacity="1" stop-color="rgb(23.405457%, 18.595886%, 33.396912%)" offset="0.421875"/><stop stop-opacity="1" stop-color="rgb(23.579407%, 18.714905%, 33.648682%)" offset="0.4375"/><stop stop-opacity="1" stop-color="rgb(23.753357%, 18.833923%, 33.898926%)" offset="0.453125"/><stop stop-opacity="1" stop-color="rgb(23.927307%, 18.952942%, 34.150696%)" offset="0.46875"/><stop stop-opacity="1" stop-color="rgb(24.101257%, 19.07196%, 34.402466%)" offset="0.484375"/><stop stop-opacity="1" stop-color="rgb(24.275208%, 19.190979%, 34.654236%)" offset="0.5"/><stop stop-opacity="1" stop-color="rgb(24.449158%, 19.309998%, 34.906006%)" offset="0.515625"/><stop stop-opacity="1" stop-color="rgb(24.623108%, 19.429016%, 35.157776%)" offset="0.53125"/><stop stop-opacity="1" stop-color="rgb(24.797058%, 19.548035%, 35.409546%)" offset="0.546875"/><stop stop-opacity="1" stop-color="rgb(24.971008%, 19.667053%, 35.661316%)" offset="0.5625"/><stop stop-opacity="1" stop-color="rgb(25.144958%, 19.786072%, 35.913086%)" offset="0.578125"/><stop stop-opacity="1" stop-color="rgb(25.318909%, 19.90509%, 36.164856%)" offset="0.59375"/><stop stop-opacity="1" stop-color="rgb(25.492859%, 20.024109%, 36.416626%)" offset="0.609375"/><stop stop-opacity="1" stop-color="rgb(25.666809%, 20.143127%, 36.668396%)" offset="0.625"/><stop stop-opacity="1" stop-color="rgb(25.840759%, 20.26062%, 36.920166%)" offset="0.640625"/><stop stop-opacity="1" stop-color="rgb(26.014709%, 20.379639%, 37.171936%)" offset="0.65625"/><stop stop-opacity="1" stop-color="rgb(26.18866%, 20.498657%, 37.423706%)" offset="0.671875"/><stop stop-opacity="1" stop-color="rgb(26.36261%, 20.617676%, 37.675476%)" offset="0.6875"/><stop stop-opacity="1" stop-color="rgb(26.53656%, 20.736694%, 37.927246%)" offset="0.703125"/><stop stop-opacity="1" stop-color="rgb(26.708984%, 20.855713%, 38.179016%)" offset="0.71875"/><stop stop-opacity="1" stop-color="rgb(26.882935%, 20.974731%, 38.430786%)" offset="0.734375"/><stop stop-opacity="1" stop-color="rgb(27.056885%, 21.09375%, 38.682556%)" offset="0.75"/><stop stop-opacity="1" stop-color="rgb(27.230835%, 21.212769%, 38.934326%)" offset="0.765625"/><stop stop-opacity="1" stop-color="rgb(27.404785%, 21.331787%, 39.186096%)" offset="0.78125"/><stop stop-opacity="1" stop-color="rgb(27.578735%, 21.450806%, 39.43634%)" offset="0.796875"/><stop stop-opacity="1" stop-color="rgb(27.752686%, 21.569824%, 39.68811%)" offset="0.8125"/><stop stop-opacity="1" stop-color="rgb(27.926636%, 21.688843%, 39.93988%)" offset="0.828125"/><stop stop-opacity="1" stop-color="rgb(28.100586%, 21.807861%, 40.19165%)" offset="0.84375"/><stop stop-opacity="1" stop-color="rgb(28.274536%, 21.925354%, 40.44342%)" offset="0.859375"/><stop stop-opacity="1" stop-color="rgb(28.448486%, 22.044373%, 40.69519%)" offset="0.875"/><stop stop-opacity="1" stop-color="rgb(28.622437%, 22.163391%, 40.94696%)" offset="0.890625"/><stop stop-opacity="1" stop-color="rgb(28.796387%, 22.28241%, 41.19873%)" offset="0.90625"/><stop stop-opacity="1" stop-color="rgb(28.970337%, 22.401428%, 41.4505%)" offset="0.921875"/><stop stop-opacity="1" stop-color="rgb(29.144287%, 22.520447%, 41.702271%)" offset="0.9375"/><stop stop-opacity="1" stop-color="rgb(29.318237%, 22.639465%, 41.954041%)" offset="0.953125"/><stop stop-opacity="1" stop-color="rgb(29.492188%, 22.758484%, 42.205811%)" offset="0.96875"/><stop stop-opacity="1" stop-color="rgb(29.666138%, 22.877502%, 42.457581%)" offset="0.984375"/><stop stop-opacity="1" stop-color="rgb(29.840088%, 22.996521%, 42.709351%)" offset="1"/></linearGradient><clipPath id="8abea48966"><rect x="0" width="188" y="0" height="48"/></clipPath><clipPath id="1ba77b593e"><path d="M 0.585938 0 L 187.929688 0 L 187.929688 47.019531 L 0.585938 47.019531 Z M 0.585938 0 " clip-rule="nonzero"/></clipPath><clipPath id="6657b799fd"><rect x="0" width="188" y="0" height="48"/></clipPath><clipPath id="f716fc8daa"><rect x="0" width="188" y="0" height="48"/></clipPath><mask id="5ad2eb2ce3"><g filter="url(#7cea279ee8)"><g transform="matrix(1, 0, 0, 1, 0, 0.000000000000005041)"><g clip-path="url(#f716fc8daa)"><g clip-path="url(#1ba77b593e)"><g transform="matrix(1, 0, 0, 1, 0, 0.000000000000005041)"><g clip-path="url(#6657b799fd)"><g fill="#000000" fill-opacity="1"><g transform="translate(54.151422, 37.256493)"><g><path d="M 10.625 0 C 8.46875 0 6.835938 -0.546875 5.734375 -1.640625 C 4.628906 -2.734375 4.078125 -4.328125 4.078125 -6.421875 L 4.078125 -17.21875 L 0.96875 -17.21875 L 0.96875 -22.0625 L 2.515625 -22.0625 C 3.359375 -22.0625 3.929688 -22.265625 4.234375 -22.671875 C 4.546875 -23.078125 4.703125 -23.65625 4.703125 -24.40625 L 4.703125 -28.03125 L 10.296875 -28.03125 L 10.296875 -22.0625 L 14.65625 -22.0625 L 14.65625 -17.21875 L 10.296875 -17.21875 L 10.296875 -4.828125 L 14.328125 -4.828125 L 14.328125 0 Z M 10.625 0 "/></g></g></g><g fill="#000000" fill-opacity="1"><g transform="translate(70.240911, 37.256493)"><g><path d="M 19.203125 0 C 18.078125 0 17.144531 -0.347656 16.40625 -1.046875 C 15.664062 -1.742188 15.195312 -2.679688 15 -3.859375 L 14.75 -3.859375 C 14.414062 -2.429688 13.671875 -1.347656 12.515625 -0.609375 C 11.367188 0.128906 9.957031 0.5 8.28125 0.5 C 6.0625 0.5 4.363281 -0.0859375 3.1875 -1.265625 C 2.007812 -2.441406 1.421875 -3.992188 1.421875 -5.921875 C 1.421875 -8.242188 2.269531 -9.972656 3.96875 -11.109375 C 5.664062 -12.242188 7.96875 -12.8125 10.875 -12.8125 L 14.375 -12.8125 L 14.375 -14.203125 C 14.375 -15.265625 14.09375 -16.109375 13.53125 -16.734375 C 12.96875 -17.367188 12.03125 -17.6875 10.71875 -17.6875 C 9.476562 -17.6875 8.492188 -17.421875 7.765625 -16.890625 C 7.046875 -16.359375 6.445312 -15.753906 5.96875 -15.078125 L 2.265625 -18.359375 C 3.160156 -19.671875 4.285156 -20.695312 5.640625 -21.4375 C 7.003906 -22.1875 8.847656 -22.5625 11.171875 -22.5625 C 14.304688 -22.5625 16.660156 -21.875 18.234375 -20.5 C 19.804688 -19.125 20.59375 -17.125 20.59375 -14.5 L 20.59375 -4.828125 L 22.640625 -4.828125 L 22.640625 0 Z M 10.59375 -3.828125 C 11.625 -3.828125 12.507812 -4.050781 13.25 -4.5 C 14 -4.945312 14.375 -5.675781 14.375 -6.6875 L 14.375 -9.28125 L 11.34375 -9.28125 C 8.90625 -9.28125 7.6875 -8.457031 7.6875 -6.8125 L 7.6875 -6.171875 C 7.6875 -5.359375 7.9375 -4.765625 8.4375 -4.390625 C 8.945312 -4.015625 9.664062 -3.828125 10.59375 -3.828125 Z M 10.59375 -3.828125 "/></g></g></g><g fill="#000000" fill-opacity="1"><g transform="translate(94.144092, 37.256493)"><g><path d="M 2.90625 -22.0625 L 9.125 -22.0625 L 9.125 -18.359375 L 9.328125 -18.359375 C 9.640625 -19.585938 10.347656 -20.59375 11.453125 -21.375 C 12.554688 -22.164062 13.820312 -22.5625 15.25 -22.5625 C 18.050781 -22.5625 20.164062 -21.582031 21.59375 -19.625 C 23.019531 -17.664062 23.734375 -14.804688 23.734375 -11.046875 C 23.734375 -7.296875 23.019531 -4.429688 21.59375 -2.453125 C 20.164062 -0.484375 18.050781 0.5 15.25 0.5 C 14.519531 0.5 13.832031 0.394531 13.1875 0.1875 C 12.539062 -0.0195312 11.957031 -0.3125 11.4375 -0.6875 C 10.925781 -1.070312 10.488281 -1.519531 10.125 -2.03125 C 9.757812 -2.550781 9.492188 -3.109375 9.328125 -3.703125 L 9.125 -3.703125 L 9.125 8.40625 L 2.90625 8.40625 Z M 13.1875 -4.53125 C 14.363281 -4.53125 15.335938 -4.941406 16.109375 -5.765625 C 16.878906 -6.597656 17.265625 -7.71875 17.265625 -9.125 L 17.265625 -12.9375 C 17.265625 -14.34375 16.878906 -15.457031 16.109375 -16.28125 C 15.335938 -17.101562 14.363281 -17.515625 13.1875 -17.515625 C 12.007812 -17.515625 11.035156 -17.226562 10.265625 -16.65625 C 9.503906 -16.082031 9.125 -15.289062 9.125 -14.28125 L 9.125 -7.765625 C 9.125 -6.765625 9.503906 -5.972656 10.265625 -5.390625 C 11.035156 -4.816406 12.007812 -4.53125 13.1875 -4.53125 Z M 13.1875 -4.53125 "/></g></g></g><g fill="#000000" fill-opacity="1"><g transform="translate(119.685629, 37.256493)"><g><path d="M 2.90625 -22.0625 L 9.125 -22.0625 L 9.125 -18.359375 L 9.328125 -18.359375 C 9.640625 -19.585938 10.347656 -20.59375 11.453125 -21.375 C 12.554688 -22.164062 13.820312 -22.5625 15.25 -22.5625 C 18.050781 -22.5625 20.164062 -21.582031 21.59375 -19.625 C 23.019531 -17.664062 23.734375 -14.804688 23.734375 -11.046875 C 23.734375 -7.296875 23.019531 -4.429688 21.59375 -2.453125 C 20.164062 -0.484375 18.050781 0.5 15.25 0.5 C 14.519531 0.5 13.832031 0.394531 13.1875 0.1875 C 12.539062 -0.0195312 11.957031 -0.3125 11.4375 -0.6875 C 10.925781 -1.070312 10.488281 -1.519531 10.125 -2.03125 C 9.757812 -2.550781 9.492188 -3.109375 9.328125 -3.703125 L 9.125 -3.703125 L 9.125 8.40625 L 2.90625 8.40625 Z M 13.1875 -4.53125 C 14.363281 -4.53125 15.335938 -4.941406 16.109375 -5.765625 C 16.878906 -6.597656 17.265625 -7.71875 17.265625 -9.125 L 17.265625 -12.9375 C 17.265625 -14.34375 16.878906 -15.457031 16.109375 -16.28125 C 15.335938 -17.101562 14.363281 -17.515625 13.1875 -17.515625 C 12.007812 -17.515625 11.035156 -17.226562 10.265625 -16.65625 C 9.503906 -16.082031 9.125 -15.289062 9.125 -14.28125 L 9.125 -7.765625 C 9.125 -6.765625 9.503906 -5.972656 10.265625 -5.390625 C 11.035156 -4.816406 12.007812 -4.53125 13.1875 -4.53125 Z M 13.1875 -4.53125 "/></g></g></g><g fill="#000000" fill-opacity="1"><g transform="translate(145.227167, 37.256493)"><g><path d="M 6.015625 -24.40625 C 4.753906 -24.40625 3.832031 -24.691406 3.25 -25.265625 C 2.675781 -25.847656 2.390625 -26.585938 2.390625 -27.484375 L 2.390625 -28.40625 C 2.390625 -29.300781 2.675781 -30.035156 3.25 -30.609375 C 3.832031 -31.179688 4.753906 -31.46875 6.015625 -31.46875 C 7.273438 -31.46875 8.191406 -31.179688 8.765625 -30.609375 C 9.335938 -30.035156 9.625 -29.300781 9.625 -28.40625 L 9.625 -27.484375 C 9.625 -26.585938 9.335938 -25.847656 8.765625 -25.265625 C 8.191406 -24.691406 7.273438 -24.40625 6.015625 -24.40625 Z M 2.90625 -22.0625 L 9.125 -22.0625 L 9.125 0 L 2.90625 0 Z M 2.90625 -22.0625 "/></g></g></g><g fill="#000000" fill-opacity="1"><g transform="translate(157.241773, 37.256493)"><g><path d="M 2.90625 -31.09375 L 9.125 -31.09375 L 9.125 -18.3125 L 9.375 -18.3125 C 9.757812 -19.46875 10.441406 -20.460938 11.421875 -21.296875 C 12.410156 -22.140625 13.769531 -22.5625 15.5 -22.5625 C 17.769531 -22.5625 19.484375 -21.804688 20.640625 -20.296875 C 21.804688 -18.785156 22.390625 -16.628906 22.390625 -13.828125 L 22.390625 0 L 16.171875 0 L 16.171875 -13.3125 C 16.171875 -14.75 15.945312 -15.804688 15.5 -16.484375 C 15.050781 -17.171875 14.253906 -17.515625 13.109375 -17.515625 C 12.609375 -17.515625 12.117188 -17.453125 11.640625 -17.328125 C 11.160156 -17.203125 10.734375 -17 10.359375 -16.71875 C 9.984375 -16.4375 9.679688 -16.09375 9.453125 -15.6875 C 9.234375 -15.28125 9.125 -14.8125 9.125 -14.28125 L 9.125 0 L 2.90625 0 Z M 2.90625 -31.09375 "/></g></g></g></g></g></g></g></g></g></mask><clipPath id="515696f5ee"><path d="M 0.585938 0 L 187.929688 0 L 187.929688 47.019531 L 0.585938 47.019531 Z M 0.585938 0 " clip-rule="nonzero"/></clipPath><clipPath id="6c85b8ceef"><rect x="0" width="188" y="0" height="48"/></clipPath><clipPath id="c917f470f4"><rect x="0" width="188" y="0" height="48"/></clipPath><clipPath id="62edc2656a"><rect x="0" width="188" y="0" height="48"/></clipPath><clipPath id="1ecbf2b7b9"><path d="M 4.703125 1.210938 L 48.628906 1.210938 L 48.628906 45.824219 L 4.703125 45.824219 Z M 4.703125 1.210938 " clip-rule="nonzero"/></clipPath><clipPath id="6a3526cf0a"><path d="M 18.660156 1.210938 L 34.671875 1.210938 C 38.375 1.210938 41.921875 2.683594 44.542969 5.300781 C 47.160156 7.917969 48.628906 11.46875 48.628906 15.171875 L 48.628906 31.851562 C 48.628906 35.550781 47.160156 39.101562 44.542969 41.722656 C 41.921875 44.339844 38.375 45.808594 34.671875 45.808594 L 18.660156 45.808594 C 14.957031 45.808594 11.40625 44.339844 8.789062 41.722656 C 6.171875 39.101562 4.703125 35.550781 4.703125 31.851562 L 4.703125 15.171875 C 4.703125 11.46875 6.171875 7.917969 8.789062 5.300781 C 11.40625 2.683594 14.957031 1.210938 18.660156 1.210938 Z M 18.660156 1.210938 " clip-rule="nonzero"/></clipPath><clipPath id="385de8ca58"><path d="M 0.703125 0.210938 L 44.628906 0.210938 L 44.628906 44.808594 L 0.703125 44.808594 Z M 0.703125 0.210938 " clip-rule="nonzero"/></clipPath><clipPath id="b2d0e95f46"><path d="M 14.660156 0.210938 L 30.671875 0.210938 C 34.375 0.210938 37.921875 1.683594 40.542969 4.300781 C 43.160156 6.917969 44.628906 10.46875 44.628906 14.171875 L 44.628906 30.851562 C 44.628906 34.550781 43.160156 38.101562 40.542969 40.722656 C 37.921875 43.339844 34.375 44.808594 30.671875 44.808594 L 14.660156 44.808594 C 10.957031 44.808594 7.40625 43.339844 4.789062 40.722656 C 2.171875 38.101562 0.703125 34.550781 0.703125 30.851562 L 0.703125 14.171875 C 0.703125 10.46875 2.171875 6.917969 4.789062 4.300781 C 7.40625 1.683594 10.957031 0.210938 14.660156 0.210938 Z M 14.660156 0.210938 " clip-rule="nonzero"/></clipPath><linearGradient x1="128" gradientTransform="matrix(0.171597, 0, 0, 0.171597, 0.701263, 0.209888)" y1="0.00619536" x2="128" gradientUnits="userSpaceOnUse" y2="259.90302" id="abb3684251"><stop stop-opacity="1" stop-color="rgb(16.859436%, 14.118958%, 23.919678%)" offset="0"/><stop stop-opacity="1" stop-color="rgb(16.975403%, 14.198303%, 24.087524%)" offset="0.015625"/><stop stop-opacity="1" stop-color="rgb(17.208862%, 14.358521%, 24.424744%)" offset="0.03125"/><stop stop-opacity="1" stop-color="rgb(17.440796%, 14.517212%, 24.761963%)" offset="0.046875"/><stop stop-opacity="1" stop-color="rgb(17.674255%, 14.675903%, 25.099182%)" offset="0.0625"/><stop stop-opacity="1" stop-color="rgb(17.906189%, 14.836121%, 25.436401%)" offset="0.078125"/><stop stop-opacity="1" stop-color="rgb(18.139648%, 14.994812%, 25.772095%)" offset="0.09375"/><stop stop-opacity="1" stop-color="rgb(18.373108%, 15.153503%, 26.109314%)" offset="0.109375"/><stop stop-opacity="1" stop-color="rgb(18.605042%, 15.313721%, 26.446533%)" offset="0.125"/><stop stop-opacity="1" stop-color="rgb(18.838501%, 15.472412%, 26.783752%)" offset="0.140625"/><stop stop-opacity="1" stop-color="rgb(19.070435%, 15.631104%, 27.120972%)" offset="0.15625"/><stop stop-opacity="1" stop-color="rgb(19.303894%, 15.791321%, 27.458191%)" offset="0.171875"/><stop stop-opacity="1" stop-color="rgb(19.535828%, 15.950012%, 27.79541%)" offset="0.1875"/><stop stop-opacity="1" stop-color="rgb(19.769287%, 16.108704%, 28.132629%)" offset="0.203125"/><stop stop-opacity="1" stop-color="rgb(20.002747%, 16.268921%, 28.468323%)" offset="0.21875"/><stop stop-opacity="1" stop-color="rgb(20.23468%, 16.427612%, 28.805542%)" offset="0.234375"/><stop stop-opacity="1" stop-color="rgb(20.46814%, 16.586304%, 29.142761%)" offset="0.25"/><stop stop-opacity="1" stop-color="rgb(20.700073%, 16.746521%, 29.47998%)" offset="0.265625"/><stop stop-opacity="1" stop-color="rgb(20.933533%, 16.905212%, 29.8172%)" offset="0.28125"/><stop stop-opacity="1" stop-color="rgb(21.165466%, 17.06543%, 30.154419%)" offset="0.296875"/><stop stop-opacity="1" stop-color="rgb(21.398926%, 17.224121%, 30.491638%)" offset="0.3125"/><stop stop-opacity="1" stop-color="rgb(21.632385%, 17.382812%, 30.827332%)" offset="0.328125"/><stop stop-opacity="1" stop-color="rgb(21.864319%, 17.54303%, 31.164551%)" offset="0.34375"/><stop stop-opacity="1" stop-color="rgb(22.097778%, 17.701721%, 31.50177%)" offset="0.359375"/><stop stop-opacity="1" stop-color="rgb(22.329712%, 17.860413%, 31.838989%)" offset="0.375"/><stop stop-opacity="1" stop-color="rgb(22.563171%, 18.02063%, 32.176208%)" offset="0.390625"/><stop stop-opacity="1" stop-color="rgb(22.795105%, 18.179321%, 32.513428%)" offset="0.40625"/><stop stop-opacity="1" stop-color="rgb(23.028564%, 18.338013%, 32.850647%)" offset="0.421875"/><stop stop-opacity="1" stop-color="rgb(23.262024%, 18.49823%, 33.187866%)" offset="0.4375"/><stop stop-opacity="1" stop-color="rgb(23.493958%, 18.656921%, 33.52356%)" offset="0.453125"/><stop stop-opacity="1" stop-color="rgb(23.727417%, 18.815613%, 33.860779%)" offset="0.46875"/><stop stop-opacity="1" stop-color="rgb(23.959351%, 18.97583%, 34.197998%)" offset="0.484375"/><stop stop-opacity="1" stop-color="rgb(24.19281%, 19.134521%, 34.535217%)" offset="0.5"/><stop stop-opacity="1" stop-color="rgb(24.424744%, 19.293213%, 34.872437%)" offset="0.515625"/><stop stop-opacity="1" stop-color="rgb(24.658203%, 19.45343%, 35.209656%)" offset="0.53125"/><stop stop-opacity="1" stop-color="rgb(24.891663%, 19.612122%, 35.546875%)" offset="0.546875"/><stop stop-opacity="1" stop-color="rgb(25.123596%, 19.770813%, 35.884094%)" offset="0.5625"/><stop stop-opacity="1" stop-color="rgb(25.357056%, 19.93103%, 36.219788%)" offset="0.578125"/><stop stop-opacity="1" stop-color="rgb(25.588989%, 20.089722%, 36.557007%)" offset="0.59375"/><stop stop-opacity="1" stop-color="rgb(25.822449%, 20.248413%, 36.894226%)" offset="0.609375"/><stop stop-opacity="1" stop-color="rgb(26.054382%, 20.40863%, 37.231445%)" offset="0.625"/><stop stop-opacity="1" stop-color="rgb(26.287842%, 20.567322%, 37.568665%)" offset="0.640625"/><stop stop-opacity="1" stop-color="rgb(26.521301%, 20.726013%, 37.905884%)" offset="0.65625"/><stop stop-opacity="1" stop-color="rgb(26.753235%, 20.88623%, 38.243103%)" offset="0.671875"/><stop stop-opacity="1" stop-color="rgb(26.986694%, 21.044922%, 38.580322%)" offset="0.6875"/><stop stop-opacity="1" stop-color="rgb(27.218628%, 21.203613%, 38.916016%)" offset="0.703125"/><stop stop-opacity="1" stop-color="rgb(27.452087%, 21.363831%, 39.253235%)" offset="0.71875"/><stop stop-opacity="1" stop-color="rgb(27.684021%, 21.522522%, 39.590454%)" offset="0.734375"/><stop stop-opacity="1" stop-color="rgb(27.91748%, 21.681213%, 39.927673%)" offset="0.75"/><stop stop-opacity="1" stop-color="rgb(28.15094%, 21.841431%, 40.264893%)" offset="0.765625"/><stop stop-opacity="1" stop-color="rgb(28.382874%, 22.000122%, 40.602112%)" offset="0.78125"/><stop stop-opacity="1" stop-color="rgb(28.616333%, 22.158813%, 40.939331%)" offset="0.796875"/><stop stop-opacity="1" stop-color="rgb(28.848267%, 22.319031%, 41.275024%)" offset="0.8125"/><stop stop-opacity="1" stop-color="rgb(29.081726%, 22.477722%, 41.612244%)" offset="0.828125"/><stop stop-opacity="1" stop-color="rgb(29.31366%, 22.637939%, 41.949463%)" offset="0.84375"/><stop stop-opacity="1" stop-color="rgb(29.547119%, 22.796631%, 42.286682%)" offset="0.859375"/><stop stop-opacity="1" stop-color="rgb(29.780579%, 22.955322%, 42.623901%)" offset="0.875"/><stop stop-opacity="1" stop-color="rgb(30.012512%, 23.11554%, 42.961121%)" offset="0.890625"/><stop stop-opacity="1" stop-color="rgb(30.245972%, 23.274231%, 43.29834%)" offset="0.90625"/><stop stop-opacity="1" stop-color="rgb(30.477905%, 23.432922%, 43.635559%)" offset="0.921875"/><stop stop-opacity="1" stop-color="rgb(30.711365%, 23.59314%, 43.971252%)" offset="0.9375"/><stop stop-opacity="1" stop-color="rgb(30.943298%, 23.751831%, 44.308472%)" offset="0.953125"/><stop stop-opacity="1" stop-color="rgb(31.176758%, 23.910522%, 44.645691%)" offset="0.96875"/><stop stop-opacity="1" stop-color="rgb(31.410217%, 24.07074%, 44.98291%)" offset="0.984375"/><stop stop-opacity="1" stop-color="rgb(31.642151%, 24.229431%, 45.320129%)" offset="1"/></linearGradient><clipPath id="6d0515fc60"><rect x="0" width="45" y="0" height="45"/></clipPath><clipPath id="ca537fb1ee"><path d="M 23 5.242188 L 31 5.242188 L 31 17 L 23 17 Z M 23 5.242188 " clip-rule="nonzero"/></clipPath><clipPath id="5b972e542f"><path d="M 23 19 L 38 19 L 38 42.710938 L 23 42.710938 Z M 23 19 " clip-rule="nonzero"/></clipPath><clipPath id="67b1b0685c"><path d="M 9.855469 16 L 40 16 L 40 33 L 9.855469 33 Z M 9.855469 16 " clip-rule="nonzero"/></clipPath><clipPath id="de009985d4"><path d="M 12 7 L 40.710938 7 L 40.710938 22 L 12 22 Z M 12 7 " clip-rule="nonzero"/></clipPath></defs><g clip-path="url(#b13862a16f)"><g transform="matrix(1, 0, 0, 1, 1, 0.000000000000005041)"><g clip-path="url(#62edc2656a)"><g clip-path="url(#a2fb590a8c)"><g transform="matrix(1, 0, 0, 1, 0, 0.000000000000005041)"><g clip-path="url(#c917f470f4)"><g clip-path="url(#76dae4a012)"><g mask="url(#5ad2eb2ce3)"><g transform="matrix(1, 0, 0, 1, 0, 0.000000000000005041)"><g clip-path="url(#6c85b8ceef)"><g clip-path="url(#515696f5ee)"><path fill="url(#1a9b6ace67)" d="M 0.585938 0 L 0.585938 47.019531 L 187.929688 47.019531 L 187.929688 0 Z M 0.585938 0 " fill-rule="nonzero"/></g></g></g></g></g></g></g></g></g></g></g><g clip-path="url(#1ecbf2b7b9)"><g clip-path="url(#6a3526cf0a)"><g transform="matrix(1, 0, 0, 1, 4, 1)"><g clip-path="url(#6d0515fc60)"><g clip-path="url(#385de8ca58)"><g clip-path="url(#b2d0e95f46)"><path fill="url(#abb3684251)" d="M 0.703125 0.210938 L 0.703125 44.808594 L 44.628906 44.808594 L 44.628906 0.210938 Z M 0.703125 0.210938 " fill-rule="nonzero"/></g></g></g></g></g></g><g clip-path="url(#ca537fb1ee)"><path fill="#ffffff" d="M 24.15625 16.890625 L 23.515625 16.894531 L 23.515625 6.925781 L 25.996094 6.324219 L 30.601562 5.214844 L 30.601562 16.851562 Z M 24.15625 16.890625 " fill-opacity="1" fill-rule="evenodd"/></g><g clip-path="url(#5b972e542f)"><path fill="#ffffff" d="M 37.277344 42.070312 C 36.214844 42.484375 34.328125 42.78125 32.023438 42.78125 C 31.820312 42.78125 31.621094 42.777344 31.429688 42.769531 C 30.101562 42.703125 28.894531 42.410156 27.867188 41.929688 C 27.035156 41.542969 26.320312 41.03125 25.757812 40.421875 C 24.222656 38.765625 23.515625 36.164062 23.515625 32.382812 L 23.515625 21.464844 L 23.949219 21.339844 L 26.441406 20.59375 L 26.449219 20.589844 L 27.203125 20.367188 L 27.867188 20.171875 L 28.046875 20.117188 L 29.261719 19.871094 L 30.601562 19.601562 L 30.601562 31.554688 C 30.601562 34.804688 31.421875 36.617188 33.785156 36.847656 C 33.957031 36.863281 34.136719 36.875 34.328125 36.875 C 34.609375 36.875 34.875 36.863281 35.125 36.847656 L 37.167969 36.847656 Z M 37.277344 42.070312 " fill-opacity="1" fill-rule="evenodd"/></g><g clip-path="url(#67b1b0685c)"><path fill="#ffffff" d="M 39.617188 16.679688 L 37.390625 17.824219 L 37.382812 17.828125 L 36.671875 18.195312 L 35.265625 18.921875 L 35.132812 18.988281 L 33.132812 20.015625 L 31.621094 20.796875 L 30.601562 21.320312 L 24.765625 24.328125 L 24.285156 24.574219 L 23.515625 24.972656 L 22.777344 25.351562 L 22.167969 25.664062 L 21.472656 26.023438 L 21.464844 26.027344 L 17.875 27.878906 L 15.882812 28.902344 L 14.578125 29.574219 L 9.84375 32.011719 L 11.277344 25.101562 L 18.953125 22.820312 L 20.371094 22.402344 L 22.535156 21.757812 L 23.515625 21.464844 L 23.949219 21.339844 L 26.441406 20.59375 L 26.449219 20.589844 L 27.203125 20.367188 L 27.867188 20.171875 L 28.046875 20.117188 L 30.027344 19.527344 L 31.445312 19.105469 L 39.128906 16.824219 Z M 39.617188 16.679688 " fill-opacity="1" fill-rule="evenodd"/></g><g clip-path="url(#de009985d4)"><path fill="#ffffff" d="M 55.019531 13.21875 C 55.015625 13.21875 55.015625 13.21875 55.015625 13.21875 C 55.007812 13.207031 54.996094 13.191406 54.980469 13.179688 C 54.9375 13.136719 54.882812 13.105469 54.816406 13.070312 C 54.753906 13.042969 54.683594 13.015625 54.601562 12.992188 C 54.566406 12.980469 54.53125 12.972656 54.492188 12.964844 C 54.203125 12.894531 53.820312 12.859375 53.359375 12.851562 C 53.335938 12.851562 53.3125 12.851562 53.289062 12.851562 C 53.167969 12.851562 53.039062 12.851562 52.910156 12.851562 C 52.875 12.851562 52.839844 12.851562 52.804688 12.851562 C 52.546875 12.859375 52.277344 12.867188 51.992188 12.886719 C 51.84375 12.898438 51.691406 12.90625 51.535156 12.917969 C 51.414062 12.929688 51.289062 12.941406 51.164062 12.953125 C 51.105469 12.957031 51.050781 12.960938 50.992188 12.96875 C 50.9375 12.972656 50.882812 12.976562 50.828125 12.984375 L 49.40625 11.40625 L 49.230469 11.210938 L 49.910156 11.101562 L 49.835938 10.320312 L 49.824219 10.203125 L 49.824219 10.175781 L 48.992188 10.304688 L 48.773438 10.339844 L 48.5 10.382812 L 48.503906 10.402344 L 47.558594 9.355469 L 47.359375 9.136719 L 46.851562 8.570312 L 46.601562 8.300781 L 46.320312 7.984375 L 46.242188 7.898438 C 46.175781 7.832031 46.09375 7.785156 46.003906 7.757812 C 45.90625 7.722656 45.800781 7.714844 45.691406 7.734375 C 45.621094 7.742188 45.558594 7.765625 45.5 7.792969 C 45.34375 7.867188 45.21875 7.996094 45.144531 8.148438 C 45.082031 8.273438 45.050781 8.421875 45.066406 8.570312 C 45.070312 8.609375 45.078125 8.648438 45.085938 8.683594 C 45.132812 8.773438 45.183594 8.863281 45.226562 8.957031 C 45.238281 8.976562 45.25 9.003906 45.261719 9.023438 C 45.277344 9.058594 45.296875 9.089844 45.3125 9.117188 L 46.175781 10.925781 C 46.53125 11.726562 46.867188 12.53125 47.171875 13.339844 L 44.542969 13.988281 L 43.355469 14.285156 L 43.109375 14.34375 L 42.96875 14.378906 L 42.832031 14.414062 L 42.523438 14.070312 L 42.238281 13.753906 L 41.730469 13.191406 L 41.429688 12.855469 L 41.324219 12.734375 L 41.203125 12.601562 L 41.183594 12.585938 L 41.167969 12.566406 L 41.164062 12.566406 C 41.105469 12.507812 41.019531 12.480469 40.929688 12.496094 C 40.824219 12.511719 40.742188 12.582031 40.695312 12.671875 C 40.671875 12.722656 40.65625 12.777344 40.660156 12.835938 C 40.660156 12.84375 40.660156 12.847656 40.664062 12.855469 C 40.664062 12.871094 40.667969 12.886719 40.671875 12.902344 C 40.691406 12.941406 40.710938 12.980469 40.730469 13.019531 C 40.734375 13.03125 40.742188 13.039062 40.746094 13.050781 C 40.753906 13.0625 40.761719 13.078125 40.765625 13.089844 L 40.929688 13.433594 L 41.136719 13.867188 C 41.21875 14.046875 41.296875 14.226562 41.371094 14.410156 C 41.371094 14.414062 41.375 14.417969 41.375 14.421875 C 41.433594 14.5625 41.488281 14.707031 41.546875 14.847656 L 40.222656 14.773438 L 39.828125 14.757812 L 38.207031 14.6875 L 37.660156 14.664062 L 36.25 14.605469 L 35.070312 14.550781 L 30.925781 14.371094 L 24.605469 14.09375 L 23.160156 14.03125 L 22.394531 14 L 20.941406 13.9375 L 16.9375 13.765625 L 14.722656 13.667969 L 13.785156 13.625 L 12.707031 18.8125 L 12.691406 18.878906 L 12.710938 18.875 L 13.195312 18.824219 L 14.1875 18.714844 L 15.445312 18.578125 L 16.4375 18.46875 L 20.5 18.019531 L 20.503906 18.015625 L 20.507812 18.015625 L 21.296875 17.929688 L 21.550781 17.902344 L 21.984375 17.855469 L 23.542969 17.683594 L 24.066406 17.625 L 24.234375 17.605469 L 31.183594 16.839844 L 33.5625 16.578125 L 33.695312 16.5625 L 35.957031 16.316406 L 36.109375 16.300781 L 37.699219 16.125 L 38.503906 16.035156 L 38.511719 16.035156 L 39.558594 15.917969 L 39.828125 15.890625 L 40.683594 15.796875 L 41.648438 15.707031 L 41.667969 15.929688 C 41.609375 16.304688 41.539062 16.6875 41.460938 17.066406 L 41.25 17.9375 C 41.246094 17.953125 41.242188 17.96875 41.238281 17.984375 C 41.238281 17.996094 41.234375 18.007812 41.230469 18.015625 C 41.226562 18.03125 41.222656 18.046875 41.21875 18.058594 C 41.210938 18.089844 41.203125 18.117188 41.195312 18.148438 C 41.195312 18.15625 41.195312 18.164062 41.195312 18.167969 C 41.195312 18.179688 41.195312 18.1875 41.195312 18.199219 C 41.203125 18.261719 41.226562 18.320312 41.265625 18.363281 C 41.324219 18.4375 41.421875 18.476562 41.527344 18.460938 C 41.617188 18.449219 41.691406 18.390625 41.742188 18.316406 L 41.765625 18.269531 L 41.839844 18.136719 L 41.855469 18.101562 L 41.9375 17.953125 L 42.003906 17.832031 L 42.164062 17.53125 L 42.546875 16.824219 L 42.761719 16.425781 L 42.980469 16.015625 L 43.625 15.976562 L 44.964844 15.890625 L 47.410156 15.738281 L 49.394531 15.617188 L 49.167969 15.6875 L 48.558594 15.875 L 47.328125 16.25 C 47.210938 16.960938 47.074219 17.675781 46.921875 18.394531 L 46.441406 20.421875 C 46.429688 20.457031 46.421875 20.492188 46.410156 20.527344 C 46.402344 20.554688 46.398438 20.582031 46.390625 20.605469 C 46.363281 20.707031 46.335938 20.808594 46.308594 20.914062 C 46.304688 20.953125 46.308594 20.992188 46.3125 21.03125 C 46.320312 21.136719 46.351562 21.234375 46.402344 21.316406 C 46.421875 21.351562 46.445312 21.382812 46.46875 21.414062 C 46.613281 21.585938 46.839844 21.679688 47.078125 21.640625 C 47.097656 21.640625 47.117188 21.636719 47.136719 21.628906 C 47.316406 21.582031 47.46875 21.46875 47.570312 21.320312 C 47.574219 21.316406 47.578125 21.308594 47.582031 21.304688 L 47.640625 21.195312 L 47.804688 20.886719 L 48.039062 20.457031 L 48.570312 19.472656 L 48.65625 19.308594 L 49.242188 18.21875 L 49.246094 18.277344 L 50.566406 18.070312 L 50.511719 17.46875 L 50.492188 17.273438 L 50.492188 17.25 L 50.480469 17.144531 L 49.761719 17.257812 L 49.773438 17.234375 L 49.953125 16.898438 L 50.515625 15.851562 L 50.535156 15.816406 L 51.023438 14.914062 C 51.078125 14.898438 51.128906 14.886719 51.183594 14.875 C 51.527344 14.796875 51.855469 14.714844 52.167969 14.632812 C 52.632812 14.511719 53.058594 14.382812 53.429688 14.253906 C 53.453125 14.246094 53.476562 14.238281 53.5 14.230469 C 54.136719 14.007812 54.617188 13.777344 54.867188 13.554688 C 54.945312 13.484375 55 13.414062 55.03125 13.34375 C 55.03125 13.34375 55.03125 13.339844 55.035156 13.335938 C 55.042969 13.316406 55.046875 13.296875 55.054688 13.277344 C 55.042969 13.257812 55.03125 13.238281 55.019531 13.21875 Z M 55.019531 13.21875 " fill-opacity="1" fill-rule="evenodd"/></g></svg>