<svg xmlns="http://www.w3.org/2000/svg" xmlns:xlink="http://www.w3.org/1999/xlink" width="255" zoomAndPan="magnify" viewBox="0 0 191.25 48" height="64" preserveAspectRatio="xMidYMid meet" version="1.0"><defs><filter x="0%" y="0%" width="100%" height="100%" id="c5df613fcb"><feColorMatrix values="0 0 0 0 1 0 0 0 0 1 0 0 0 0 1 0 0 0 1 0" color-interpolation-filters="sRGB"/></filter><g/><clipPath id="5f3228a013"><path d="M 1.585938 0 L 188.929688 0 L 188.929688 47.019531 L 1.585938 47.019531 Z M 1.585938 0 " clip-rule="nonzero"/></clipPath><clipPath id="dc5d550262"><path d="M 0.585938 0 L 187.929688 0 L 187.929688 47.019531 L 0.585938 47.019531 Z M 0.585938 0 " clip-rule="nonzero"/></clipPath><clipPath id="6887489248"><path d="M 0.585938 0 L 187.929688 0 L 187.929688 47.019531 L 0.585938 47.019531 Z M 0.585938 0 " clip-rule="nonzero"/></clipPath><clipPath id="477f5f81e6"><path d="M 0.585938 0 L 187.929688 0 L 187.929688 47.019531 L 0.585938 47.019531 Z M 0.585938 0 " clip-rule="nonzero"/></clipPath><clipPath id="5d329a6225"><path d="M 0.585938 0 L 187.929688 0 L 187.929688 47.019531 L 0.585938 47.019531 Z M 0.585938 0 " clip-rule="nonzero"/></clipPath><linearGradient x1="135.156006" gradientTransform="matrix(0.417199, 0, 0, 0.416576, 49.815334, 6.857479)" y1="-16.461547" x2="135.156006" gradientUnits="userSpaceOnUse" y2="96.412118" id="07600757bd"><stop stop-opacity="1" stop-color="rgb(18.040466%, 14.926147%, 25.628662%)" offset="0"/><stop stop-opacity="1" stop-color="rgb(18.138123%, 14.993286%, 25.770569%)" offset="0.015625"/><stop stop-opacity="1" stop-color="rgb(18.336487%, 15.129089%, 26.057434%)" offset="0.03125"/><stop stop-opacity="1" stop-color="rgb(18.533325%, 15.263367%, 26.342773%)" offset="0.046875"/><stop stop-opacity="1" stop-color="rgb(18.731689%, 15.39917%, 26.629639%)" offset="0.0625"/><stop stop-opacity="1" stop-color="rgb(18.928528%, 15.534973%, 26.914978%)" offset="0.078125"/><stop stop-opacity="1" stop-color="rgb(19.126892%, 15.66925%, 27.201843%)" offset="0.09375"/><stop stop-opacity="1" stop-color="rgb(19.32373%, 15.805054%, 27.487183%)" offset="0.109375"/><stop stop-opacity="1" stop-color="rgb(19.522095%, 15.939331%, 27.772522%)" offset="0.125"/><stop stop-opacity="1" stop-color="rgb(19.718933%, 16.075134%, 28.059387%)" offset="0.140625"/><stop stop-opacity="1" stop-color="rgb(19.915771%, 16.209412%, 28.344727%)" offset="0.15625"/><stop stop-opacity="1" stop-color="rgb(20.114136%, 16.345215%, 28.631592%)" offset="0.171875"/><stop stop-opacity="1" stop-color="rgb(20.310974%, 16.479492%, 28.916931%)" offset="0.1875"/><stop stop-opacity="1" stop-color="rgb(20.509338%, 16.615295%, 29.203796%)" offset="0.203125"/><stop stop-opacity="1" stop-color="rgb(20.706177%, 16.751099%, 29.489136%)" offset="0.21875"/><stop stop-opacity="1" stop-color="rgb(20.904541%, 16.885376%, 29.776001%)" offset="0.234375"/><stop stop-opacity="1" stop-color="rgb(21.101379%, 17.021179%, 30.06134%)" offset="0.25"/><stop stop-opacity="1" stop-color="rgb(21.299744%, 17.155457%, 30.34668%)" offset="0.265625"/><stop stop-opacity="1" stop-color="rgb(21.496582%, 17.29126%, 30.633545%)" offset="0.28125"/><stop stop-opacity="1" stop-color="rgb(21.694946%, 17.425537%, 30.918884%)" offset="0.296875"/><stop stop-opacity="1" stop-color="rgb(21.891785%, 17.56134%, 31.20575%)" offset="0.3125"/><stop stop-opacity="1" stop-color="rgb(22.090149%, 17.695618%, 31.491089%)" offset="0.328125"/><stop stop-opacity="1" stop-color="rgb(22.286987%, 17.831421%, 31.777954%)" offset="0.34375"/><stop stop-opacity="1" stop-color="rgb(22.485352%, 17.967224%, 32.063293%)" offset="0.359375"/><stop stop-opacity="1" stop-color="rgb(22.68219%, 18.101501%, 32.350159%)" offset="0.375"/><stop stop-opacity="1" stop-color="rgb(22.880554%, 18.237305%, 32.635498%)" offset="0.390625"/><stop stop-opacity="1" stop-color="rgb(23.077393%, 18.371582%, 32.922363%)" offset="0.40625"/><stop stop-opacity="1" stop-color="rgb(23.275757%, 18.507385%, 33.207703%)" offset="0.421875"/><stop stop-opacity="1" stop-color="rgb(23.472595%, 18.641663%, 33.493042%)" offset="0.4375"/><stop stop-opacity="1" stop-color="rgb(23.670959%, 18.777466%, 33.779907%)" offset="0.453125"/><stop stop-opacity="1" stop-color="rgb(23.867798%, 18.911743%, 34.065247%)" offset="0.46875"/><stop stop-opacity="1" stop-color="rgb(24.066162%, 19.047546%, 34.352112%)" offset="0.484375"/><stop stop-opacity="1" stop-color="rgb(24.263%, 19.18335%, 34.637451%)" offset="0.5"/><stop stop-opacity="1" stop-color="rgb(24.461365%, 19.317627%, 34.924316%)" offset="0.515625"/><stop stop-opacity="1" stop-color="rgb(24.658203%, 19.45343%, 35.209656%)" offset="0.53125"/><stop stop-opacity="1" stop-color="rgb(24.856567%, 19.587708%, 35.496521%)" offset="0.546875"/><stop stop-opacity="1" stop-color="rgb(25.053406%, 19.723511%, 35.78186%)" offset="0.5625"/><stop stop-opacity="1" stop-color="rgb(25.25177%, 19.857788%, 36.068726%)" offset="0.578125"/><stop stop-opacity="1" stop-color="rgb(25.448608%, 19.993591%, 36.354065%)" offset="0.59375"/><stop stop-opacity="1" stop-color="rgb(25.646973%, 20.127869%, 36.639404%)" offset="0.609375"/><stop stop-opacity="1" stop-color="rgb(25.843811%, 20.263672%, 36.92627%)" offset="0.625"/><stop stop-opacity="1" stop-color="rgb(26.042175%, 20.399475%, 37.211609%)" offset="0.640625"/><stop stop-opacity="1" stop-color="rgb(26.239014%, 20.533752%, 37.498474%)" offset="0.65625"/><stop stop-opacity="1" stop-color="rgb(26.437378%, 20.669556%, 37.783813%)" offset="0.671875"/><stop stop-opacity="1" stop-color="rgb(26.634216%, 20.803833%, 38.070679%)" offset="0.6875"/><stop stop-opacity="1" stop-color="rgb(26.832581%, 20.939636%, 38.356018%)" offset="0.703125"/><stop stop-opacity="1" stop-color="rgb(27.029419%, 21.073914%, 38.642883%)" offset="0.71875"/><stop stop-opacity="1" stop-color="rgb(27.227783%, 21.209717%, 38.928223%)" offset="0.734375"/><stop stop-opacity="1" stop-color="rgb(27.424622%, 21.343994%, 39.215088%)" offset="0.75"/><stop stop-opacity="1" stop-color="rgb(27.62146%, 21.479797%, 39.500427%)" offset="0.765625"/><stop stop-opacity="1" stop-color="rgb(27.819824%, 21.615601%, 39.785767%)" offset="0.78125"/><stop stop-opacity="1" stop-color="rgb(28.016663%, 21.749878%, 40.072632%)" offset="0.796875"/><stop stop-opacity="1" stop-color="rgb(28.215027%, 21.885681%, 40.357971%)" offset="0.8125"/><stop stop-opacity="1" stop-color="rgb(28.411865%, 22.019958%, 40.644836%)" offset="0.828125"/><stop stop-opacity="1" stop-color="rgb(28.610229%, 22.155762%, 40.930176%)" offset="0.84375"/><stop stop-opacity="1" stop-color="rgb(28.807068%, 22.290039%, 41.217041%)" offset="0.859375"/><stop stop-opacity="1" stop-color="rgb(29.005432%, 22.425842%, 41.50238%)" offset="0.875"/><stop stop-opacity="1" stop-color="rgb(29.202271%, 22.56012%, 41.789246%)" offset="0.890625"/><stop stop-opacity="1" stop-color="rgb(29.400635%, 22.695923%, 42.074585%)" offset="0.90625"/><stop stop-opacity="1" stop-color="rgb(29.597473%, 22.831726%, 42.36145%)" offset="0.921875"/><stop stop-opacity="1" stop-color="rgb(29.795837%, 22.966003%, 42.64679%)" offset="0.9375"/><stop stop-opacity="1" stop-color="rgb(29.992676%, 23.101807%, 42.932129%)" offset="0.953125"/><stop stop-opacity="1" stop-color="rgb(30.19104%, 23.236084%, 43.218994%)" offset="0.96875"/><stop stop-opacity="1" stop-color="rgb(30.387878%, 23.371887%, 43.504333%)" offset="0.984375"/><stop stop-opacity="1" stop-color="rgb(30.586243%, 23.506165%, 43.791199%)" offset="1"/></linearGradient><clipPath id="ad4f82d8d7"><rect x="0" width="188" y="0" height="48"/></clipPath><clipPath id="d5a513d17e"><path d="M 0.585938 0 L 187.929688 0 L 187.929688 47.019531 L 0.585938 47.019531 Z M 0.585938 0 " clip-rule="nonzero"/></clipPath><clipPath id="1d55413142"><rect x="0" width="188" y="0" height="48"/></clipPath><clipPath id="ed3183f83f"><rect x="0" width="188" y="0" height="48"/></clipPath><mask id="ff5e89b96a"><g filter="url(#c5df613fcb)"><g transform="matrix(1, 0, 0, 1, 0, 0.000000000000005041)"><g clip-path="url(#ed3183f83f)"><g clip-path="url(#d5a513d17e)"><g transform="matrix(1, 0, 0, 1, 0, 0.000000000000005041)"><g clip-path="url(#1d55413142)"><g fill="#000000" fill-opacity="1"><g transform="translate(49.681904, 35.606814)"><g><path d="M 9.359375 0 C 7.453125 0 6.015625 -0.476562 5.046875 -1.4375 C 4.078125 -2.40625 3.59375 -3.8125 3.59375 -5.65625 L 3.59375 -15.15625 L 0.84375 -15.15625 L 0.84375 -19.40625 L 2.21875 -19.40625 C 2.957031 -19.40625 3.460938 -19.582031 3.734375 -19.9375 C 4.003906 -20.300781 4.140625 -20.816406 4.140625 -21.484375 L 4.140625 -24.65625 L 9.0625 -24.65625 L 9.0625 -19.40625 L 12.90625 -19.40625 L 12.90625 -15.15625 L 9.0625 -15.15625 L 9.0625 -4.25 L 12.609375 -4.25 L 12.609375 0 Z M 9.359375 0 "/></g></g></g><g fill="#000000" fill-opacity="1"><g transform="translate(63.840509, 35.606814)"><g><path d="M 16.890625 0 C 15.910156 0 15.09375 -0.304688 14.4375 -0.921875 C 13.78125 -1.535156 13.367188 -2.363281 13.203125 -3.40625 L 12.96875 -3.40625 C 12.675781 -2.144531 12.023438 -1.1875 11.015625 -0.53125 C 10.003906 0.113281 8.757812 0.4375 7.28125 0.4375 C 5.332031 0.4375 3.835938 -0.078125 2.796875 -1.109375 C 1.765625 -2.140625 1.25 -3.507812 1.25 -5.21875 C 1.25 -7.257812 1.992188 -8.78125 3.484375 -9.78125 C 4.984375 -10.78125 7.015625 -11.28125 9.578125 -11.28125 L 12.640625 -11.28125 L 12.640625 -12.5 C 12.640625 -13.4375 12.394531 -14.179688 11.90625 -14.734375 C 11.414062 -15.285156 10.585938 -15.5625 9.421875 -15.5625 C 8.335938 -15.5625 7.472656 -15.328125 6.828125 -14.859375 C 6.191406 -14.390625 5.664062 -13.859375 5.25 -13.265625 L 2 -16.15625 C 2.78125 -17.3125 3.769531 -18.21875 4.96875 -18.875 C 6.164062 -19.53125 7.785156 -19.859375 9.828125 -19.859375 C 12.585938 -19.859375 14.65625 -19.253906 16.03125 -18.046875 C 17.414062 -16.835938 18.109375 -15.070312 18.109375 -12.75 L 18.109375 -4.25 L 19.921875 -4.25 L 19.921875 0 Z M 9.3125 -3.359375 C 10.226562 -3.359375 11.007812 -3.554688 11.65625 -3.953125 C 12.3125 -4.347656 12.640625 -4.988281 12.640625 -5.875 L 12.640625 -8.171875 L 9.984375 -8.171875 C 7.835938 -8.171875 6.765625 -7.441406 6.765625 -5.984375 L 6.765625 -5.4375 C 6.765625 -4.71875 6.984375 -4.191406 7.421875 -3.859375 C 7.867188 -3.523438 8.5 -3.359375 9.3125 -3.359375 Z M 9.3125 -3.359375 "/></g></g></g><g fill="#000000" fill-opacity="1"><g transform="translate(84.875092, 35.606814)"><g><path d="M 2.546875 -19.40625 L 8.015625 -19.40625 L 8.015625 -16.15625 L 8.203125 -16.15625 C 8.472656 -17.238281 9.09375 -18.125 10.0625 -18.8125 C 11.039062 -19.507812 12.160156 -19.859375 13.421875 -19.859375 C 15.878906 -19.859375 17.738281 -18.992188 19 -17.265625 C 20.257812 -15.535156 20.890625 -13.019531 20.890625 -9.71875 C 20.890625 -6.414062 20.257812 -3.894531 19 -2.15625 C 17.738281 -0.425781 15.878906 0.4375 13.421875 0.4375 C 12.773438 0.4375 12.171875 0.34375 11.609375 0.15625 C 11.046875 -0.0195312 10.535156 -0.273438 10.078125 -0.609375 C 9.617188 -0.941406 9.226562 -1.335938 8.90625 -1.796875 C 8.582031 -2.253906 8.347656 -2.738281 8.203125 -3.25 L 8.015625 -3.25 L 8.015625 7.390625 L 2.546875 7.390625 Z M 11.609375 -4 C 12.640625 -4 13.492188 -4.359375 14.171875 -5.078125 C 14.847656 -5.804688 15.1875 -6.785156 15.1875 -8.015625 L 15.1875 -11.390625 C 15.1875 -12.617188 14.847656 -13.597656 14.171875 -14.328125 C 13.492188 -15.054688 12.640625 -15.421875 11.609375 -15.421875 C 10.578125 -15.421875 9.71875 -15.164062 9.03125 -14.65625 C 8.351562 -14.15625 8.015625 -13.457031 8.015625 -12.5625 L 8.015625 -6.84375 C 8.015625 -5.957031 8.351562 -5.257812 9.03125 -4.75 C 9.71875 -4.25 10.578125 -4 11.609375 -4 Z M 11.609375 -4 "/></g></g></g><g fill="#000000" fill-opacity="1"><g transform="translate(107.351414, 35.606814)"><g><path d="M 2.546875 -19.40625 L 8.015625 -19.40625 L 8.015625 -16.15625 L 8.203125 -16.15625 C 8.472656 -17.238281 9.09375 -18.125 10.0625 -18.8125 C 11.039062 -19.507812 12.160156 -19.859375 13.421875 -19.859375 C 15.878906 -19.859375 17.738281 -18.992188 19 -17.265625 C 20.257812 -15.535156 20.890625 -13.019531 20.890625 -9.71875 C 20.890625 -6.414062 20.257812 -3.894531 19 -2.15625 C 17.738281 -0.425781 15.878906 0.4375 13.421875 0.4375 C 12.773438 0.4375 12.171875 0.34375 11.609375 0.15625 C 11.046875 -0.0195312 10.535156 -0.273438 10.078125 -0.609375 C 9.617188 -0.941406 9.226562 -1.335938 8.90625 -1.796875 C 8.582031 -2.253906 8.347656 -2.738281 8.203125 -3.25 L 8.015625 -3.25 L 8.015625 7.390625 L 2.546875 7.390625 Z M 11.609375 -4 C 12.640625 -4 13.492188 -4.359375 14.171875 -5.078125 C 14.847656 -5.804688 15.1875 -6.785156 15.1875 -8.015625 L 15.1875 -11.390625 C 15.1875 -12.617188 14.847656 -13.597656 14.171875 -14.328125 C 13.492188 -15.054688 12.640625 -15.421875 11.609375 -15.421875 C 10.578125 -15.421875 9.71875 -15.164062 9.03125 -14.65625 C 8.351562 -14.15625 8.015625 -13.457031 8.015625 -12.5625 L 8.015625 -6.84375 C 8.015625 -5.957031 8.351562 -5.257812 9.03125 -4.75 C 9.71875 -4.25 10.578125 -4 11.609375 -4 Z M 11.609375 -4 "/></g></g></g><g fill="#000000" fill-opacity="1"><g transform="translate(129.827736, 35.606814)"><g><path d="M 5.28125 -21.484375 C 4.175781 -21.484375 3.367188 -21.734375 2.859375 -22.234375 C 2.359375 -22.742188 2.109375 -23.390625 2.109375 -24.171875 L 2.109375 -24.984375 C 2.109375 -25.773438 2.359375 -26.421875 2.859375 -26.921875 C 3.367188 -27.429688 4.175781 -27.6875 5.28125 -27.6875 C 6.394531 -27.6875 7.203125 -27.429688 7.703125 -26.921875 C 8.210938 -26.421875 8.46875 -25.773438 8.46875 -24.984375 L 8.46875 -24.171875 C 8.46875 -23.390625 8.210938 -22.742188 7.703125 -22.234375 C 7.203125 -21.734375 6.394531 -21.484375 5.28125 -21.484375 Z M 2.546875 -19.40625 L 8.015625 -19.40625 L 8.015625 0 L 2.546875 0 Z M 2.546875 -19.40625 "/></g></g></g><g fill="#000000" fill-opacity="1"><g transform="translate(140.400481, 35.606814)"><g><path d="M 2.546875 -27.359375 L 8.015625 -27.359375 L 8.015625 -16.125 L 8.25 -16.125 C 8.59375 -17.132812 9.191406 -18.007812 10.046875 -18.75 C 10.910156 -19.488281 12.109375 -19.859375 13.640625 -19.859375 C 15.640625 -19.859375 17.148438 -19.191406 18.171875 -17.859375 C 19.191406 -16.523438 19.703125 -14.625 19.703125 -12.15625 L 19.703125 0 L 14.234375 0 L 14.234375 -11.71875 C 14.234375 -12.976562 14.035156 -13.910156 13.640625 -14.515625 C 13.242188 -15.117188 12.539062 -15.421875 11.53125 -15.421875 C 11.09375 -15.421875 10.660156 -15.363281 10.234375 -15.25 C 9.816406 -15.132812 9.441406 -14.953125 9.109375 -14.703125 C 8.773438 -14.460938 8.507812 -14.160156 8.3125 -13.796875 C 8.113281 -13.441406 8.015625 -13.03125 8.015625 -12.5625 L 8.015625 0 L 2.546875 0 Z M 2.546875 -27.359375 "/></g></g></g></g></g></g></g></g></g></mask><clipPath id="7351823d60"><path d="M 0.585938 0 L 187.929688 0 L 187.929688 47.019531 L 0.585938 47.019531 Z M 0.585938 0 " clip-rule="nonzero"/></clipPath><clipPath id="a0a6c7ca81"><rect x="0" width="188" y="0" height="48"/></clipPath><clipPath id="c7bef75bb6"><rect x="0" width="188" y="0" height="48"/></clipPath><clipPath id="f79d9df013"><rect x="0" width="188" y="0" height="48"/></clipPath><clipPath id="a1b43c568e"><path d="M 5.285156 3.886719 L 43.941406 3.886719 L 43.941406 43.148438 L 5.285156 43.148438 Z M 5.285156 3.886719 " clip-rule="nonzero"/></clipPath><clipPath id="48eea8afc0"><path d="M 19.246094 3.886719 L 29.984375 3.886719 C 37.695312 3.886719 43.941406 10.136719 43.941406 17.847656 L 43.941406 29.175781 C 43.941406 36.882812 37.695312 43.132812 29.984375 43.132812 L 19.246094 43.132812 C 11.535156 43.132812 5.285156 36.882812 5.285156 29.175781 L 5.285156 17.847656 C 5.285156 10.136719 11.535156 3.886719 19.246094 3.886719 Z M 19.246094 3.886719 " clip-rule="nonzero"/></clipPath><clipPath id="0c6b02049d"><path d="M 0.285156 0.886719 L 38.941406 0.886719 L 38.941406 40.132812 L 0.285156 40.132812 Z M 0.285156 0.886719 " clip-rule="nonzero"/></clipPath><clipPath id="d29cc50709"><path d="M 14.246094 0.886719 L 24.984375 0.886719 C 32.695312 0.886719 38.941406 7.136719 38.941406 14.847656 L 38.941406 26.175781 C 38.941406 33.882812 32.695312 40.132812 24.984375 40.132812 L 14.246094 40.132812 C 6.535156 40.132812 0.285156 33.882812 0.285156 26.175781 L 0.285156 14.847656 C 0.285156 7.136719 6.535156 0.886719 14.246094 0.886719 Z M 14.246094 0.886719 " clip-rule="nonzero"/></clipPath><linearGradient x1="128" gradientTransform="matrix(0.151004, 0, 0, 0.151004, 0.286224, 0.886128)" y1="0.0061946" x2="128" gradientUnits="userSpaceOnUse" y2="259.90302" id="03b9d50ede"><stop stop-opacity="1" stop-color="rgb(16.859436%, 14.118958%, 23.919678%)" offset="0"/><stop stop-opacity="1" stop-color="rgb(16.975403%, 14.198303%, 24.087524%)" offset="0.015625"/><stop stop-opacity="1" stop-color="rgb(17.208862%, 14.358521%, 24.424744%)" offset="0.03125"/><stop stop-opacity="1" stop-color="rgb(17.440796%, 14.517212%, 24.761963%)" offset="0.046875"/><stop stop-opacity="1" stop-color="rgb(17.674255%, 14.675903%, 25.099182%)" offset="0.0625"/><stop stop-opacity="1" stop-color="rgb(17.906189%, 14.836121%, 25.436401%)" offset="0.078125"/><stop stop-opacity="1" stop-color="rgb(18.139648%, 14.994812%, 25.772095%)" offset="0.09375"/><stop stop-opacity="1" stop-color="rgb(18.373108%, 15.153503%, 26.109314%)" offset="0.109375"/><stop stop-opacity="1" stop-color="rgb(18.605042%, 15.313721%, 26.446533%)" offset="0.125"/><stop stop-opacity="1" stop-color="rgb(18.838501%, 15.472412%, 26.783752%)" offset="0.140625"/><stop stop-opacity="1" stop-color="rgb(19.070435%, 15.631104%, 27.120972%)" offset="0.15625"/><stop stop-opacity="1" stop-color="rgb(19.303894%, 15.791321%, 27.458191%)" offset="0.171875"/><stop stop-opacity="1" stop-color="rgb(19.535828%, 15.950012%, 27.79541%)" offset="0.1875"/><stop stop-opacity="1" stop-color="rgb(19.769287%, 16.108704%, 28.132629%)" offset="0.203125"/><stop stop-opacity="1" stop-color="rgb(20.002747%, 16.268921%, 28.468323%)" offset="0.21875"/><stop stop-opacity="1" stop-color="rgb(20.23468%, 16.427612%, 28.805542%)" offset="0.234375"/><stop stop-opacity="1" stop-color="rgb(20.46814%, 16.586304%, 29.142761%)" offset="0.25"/><stop stop-opacity="1" stop-color="rgb(20.700073%, 16.746521%, 29.47998%)" offset="0.265625"/><stop stop-opacity="1" stop-color="rgb(20.933533%, 16.905212%, 29.8172%)" offset="0.28125"/><stop stop-opacity="1" stop-color="rgb(21.165466%, 17.06543%, 30.154419%)" offset="0.296875"/><stop stop-opacity="1" stop-color="rgb(21.398926%, 17.224121%, 30.491638%)" offset="0.3125"/><stop stop-opacity="1" stop-color="rgb(21.632385%, 17.382812%, 30.827332%)" offset="0.328125"/><stop stop-opacity="1" stop-color="rgb(21.864319%, 17.54303%, 31.164551%)" offset="0.34375"/><stop stop-opacity="1" stop-color="rgb(22.097778%, 17.701721%, 31.50177%)" offset="0.359375"/><stop stop-opacity="1" stop-color="rgb(22.329712%, 17.860413%, 31.838989%)" offset="0.375"/><stop stop-opacity="1" stop-color="rgb(22.563171%, 18.02063%, 32.176208%)" offset="0.390625"/><stop stop-opacity="1" stop-color="rgb(22.795105%, 18.179321%, 32.513428%)" offset="0.40625"/><stop stop-opacity="1" stop-color="rgb(23.028564%, 18.338013%, 32.850647%)" offset="0.421875"/><stop stop-opacity="1" stop-color="rgb(23.262024%, 18.49823%, 33.187866%)" offset="0.4375"/><stop stop-opacity="1" stop-color="rgb(23.493958%, 18.656921%, 33.52356%)" offset="0.453125"/><stop stop-opacity="1" stop-color="rgb(23.727417%, 18.815613%, 33.860779%)" offset="0.46875"/><stop stop-opacity="1" stop-color="rgb(23.959351%, 18.97583%, 34.197998%)" offset="0.484375"/><stop stop-opacity="1" stop-color="rgb(24.19281%, 19.134521%, 34.535217%)" offset="0.5"/><stop stop-opacity="1" stop-color="rgb(24.424744%, 19.293213%, 34.872437%)" offset="0.515625"/><stop stop-opacity="1" stop-color="rgb(24.658203%, 19.45343%, 35.209656%)" offset="0.53125"/><stop stop-opacity="1" stop-color="rgb(24.891663%, 19.612122%, 35.546875%)" offset="0.546875"/><stop stop-opacity="1" stop-color="rgb(25.123596%, 19.770813%, 35.884094%)" offset="0.5625"/><stop stop-opacity="1" stop-color="rgb(25.357056%, 19.93103%, 36.219788%)" offset="0.578125"/><stop stop-opacity="1" stop-color="rgb(25.588989%, 20.089722%, 36.557007%)" offset="0.59375"/><stop stop-opacity="1" stop-color="rgb(25.822449%, 20.248413%, 36.894226%)" offset="0.609375"/><stop stop-opacity="1" stop-color="rgb(26.054382%, 20.40863%, 37.231445%)" offset="0.625"/><stop stop-opacity="1" stop-color="rgb(26.287842%, 20.567322%, 37.568665%)" offset="0.640625"/><stop stop-opacity="1" stop-color="rgb(26.521301%, 20.726013%, 37.905884%)" offset="0.65625"/><stop stop-opacity="1" stop-color="rgb(26.753235%, 20.88623%, 38.243103%)" offset="0.671875"/><stop stop-opacity="1" stop-color="rgb(26.986694%, 21.044922%, 38.580322%)" offset="0.6875"/><stop stop-opacity="1" stop-color="rgb(27.218628%, 21.203613%, 38.916016%)" offset="0.703125"/><stop stop-opacity="1" stop-color="rgb(27.452087%, 21.363831%, 39.253235%)" offset="0.71875"/><stop stop-opacity="1" stop-color="rgb(27.684021%, 21.522522%, 39.590454%)" offset="0.734375"/><stop stop-opacity="1" stop-color="rgb(27.91748%, 21.681213%, 39.927673%)" offset="0.75"/><stop stop-opacity="1" stop-color="rgb(28.15094%, 21.841431%, 40.264893%)" offset="0.765625"/><stop stop-opacity="1" stop-color="rgb(28.382874%, 22.000122%, 40.602112%)" offset="0.78125"/><stop stop-opacity="1" stop-color="rgb(28.616333%, 22.158813%, 40.939331%)" offset="0.796875"/><stop stop-opacity="1" stop-color="rgb(28.848267%, 22.319031%, 41.275024%)" offset="0.8125"/><stop stop-opacity="1" stop-color="rgb(29.081726%, 22.477722%, 41.612244%)" offset="0.828125"/><stop stop-opacity="1" stop-color="rgb(29.31366%, 22.637939%, 41.949463%)" offset="0.84375"/><stop stop-opacity="1" stop-color="rgb(29.547119%, 22.796631%, 42.286682%)" offset="0.859375"/><stop stop-opacity="1" stop-color="rgb(29.780579%, 22.955322%, 42.623901%)" offset="0.875"/><stop stop-opacity="1" stop-color="rgb(30.012512%, 23.11554%, 42.961121%)" offset="0.890625"/><stop stop-opacity="1" stop-color="rgb(30.245972%, 23.274231%, 43.29834%)" offset="0.90625"/><stop stop-opacity="1" stop-color="rgb(30.477905%, 23.432922%, 43.635559%)" offset="0.921875"/><stop stop-opacity="1" stop-color="rgb(30.711365%, 23.59314%, 43.971252%)" offset="0.9375"/><stop stop-opacity="1" stop-color="rgb(30.943298%, 23.751831%, 44.308472%)" offset="0.953125"/><stop stop-opacity="1" stop-color="rgb(31.176758%, 23.910522%, 44.645691%)" offset="0.96875"/><stop stop-opacity="1" stop-color="rgb(31.410217%, 24.07074%, 44.98291%)" offset="0.984375"/><stop stop-opacity="1" stop-color="rgb(31.642151%, 24.229431%, 45.320129%)" offset="1"/></linearGradient><clipPath id="d3d52f3808"><rect x="0" width="39" y="0" height="41"/></clipPath><clipPath id="f062b40be3"><path d="M 21 7.433594 L 29 7.433594 L 29 18 L 21 18 Z M 21 7.433594 " clip-rule="nonzero"/></clipPath><clipPath id="d84fd4d069"><path d="M 21 20 L 34 20 L 34 40.40625 L 21 40.40625 Z M 21 20 " clip-rule="nonzero"/></clipPath><clipPath id="670068c496"><path d="M 9.820312 17 L 36.976562 17 L 36.976562 31 L 9.820312 31 Z M 9.820312 17 " clip-rule="nonzero"/></clipPath><clipPath id="5d7f70c0c8"><path d="M 12 9 L 36.976562 9 L 36.976562 22 L 12 22 Z M 12 9 " clip-rule="nonzero"/></clipPath><clipPath id="6dfd70da9b"><rect x="0" width="188" y="0" height="48"/></clipPath></defs><g clip-path="url(#5f3228a013)"><g transform="matrix(1, 0, 0, 1, 1, 0.000000000000005041)"><g clip-path="url(#6dfd70da9b)"><g clip-path="url(#dc5d550262)"><g transform="matrix(1, 0, 0, 1, 0, 0.000000000000005041)"><g clip-path="url(#f79d9df013)"><g clip-path="url(#6887489248)"><g transform="matrix(1, 0, 0, 1, 0, 0.000000000000005041)"><g clip-path="url(#c7bef75bb6)"><g clip-path="url(#477f5f81e6)"><g mask="url(#ff5e89b96a)"><g transform="matrix(1, 0, 0, 1, 0, 0.000000000000005041)"><g clip-path="url(#a0a6c7ca81)"><g clip-path="url(#7351823d60)"><path fill="url(#07600757bd)" d="M 0.585938 0 L 0.585938 47.019531 L 187.929688 47.019531 L 187.929688 0 Z M 0.585938 0 " fill-rule="nonzero"/></g></g></g></g></g></g></g></g></g></g></g><g clip-path="url(#a1b43c568e)"><g clip-path="url(#48eea8afc0)"><g transform="matrix(1, 0, 0, 1, 5, 3)"><g clip-path="url(#d3d52f3808)"><g clip-path="url(#0c6b02049d)"><g clip-path="url(#d29cc50709)"><path fill="url(#03b9d50ede)" d="M 0.285156 0.886719 L 0.285156 40.132812 L 38.941406 40.132812 L 38.941406 0.886719 Z M 0.285156 0.886719 " fill-rule="nonzero"/></g></g></g></g></g></g><g clip-path="url(#f062b40be3)"><path fill="#ffffff" d="M 22.40625 17.6875 L 21.84375 17.691406 L 21.84375 8.914062 L 24.027344 8.386719 L 28.078125 7.410156 L 28.078125 17.652344 Z M 22.40625 17.6875 " fill-opacity="1" fill-rule="evenodd"/></g><g clip-path="url(#d84fd4d069)"><path fill="#ffffff" d="M 33.953125 39.84375 C 33.019531 40.207031 31.355469 40.46875 29.328125 40.46875 C 29.152344 40.46875 28.976562 40.464844 28.804688 40.457031 C 27.640625 40.398438 26.574219 40.140625 25.671875 39.71875 C 24.9375 39.378906 24.308594 38.929688 23.816406 38.394531 C 22.464844 36.9375 21.84375 34.644531 21.84375 31.316406 L 21.84375 21.710938 L 22.222656 21.597656 L 24.417969 20.945312 L 24.421875 20.941406 L 25.089844 20.746094 L 25.671875 20.574219 L 25.828125 20.523438 L 26.898438 20.308594 L 28.078125 20.070312 L 28.078125 30.589844 C 28.078125 33.449219 28.800781 35.042969 30.878906 35.246094 C 31.03125 35.261719 31.191406 35.269531 31.355469 35.269531 C 31.605469 35.269531 31.839844 35.261719 32.058594 35.246094 L 33.855469 35.246094 Z M 33.953125 39.84375 " fill-opacity="1" fill-rule="evenodd"/></g><g clip-path="url(#670068c496)"><path fill="#ffffff" d="M 36.011719 17.5 L 34.050781 18.507812 L 34.042969 18.511719 L 33.421875 18.832031 L 33.417969 18.832031 L 32.183594 19.472656 L 32.066406 19.53125 L 30.304688 20.4375 L 28.976562 21.121094 L 28.078125 21.582031 L 22.941406 24.230469 L 22.519531 24.445312 L 21.84375 24.796875 L 21.191406 25.132812 L 20.65625 25.40625 L 20.046875 25.71875 L 20.039062 25.726562 L 16.878906 27.355469 L 15.128906 28.257812 L 13.980469 28.847656 L 9.808594 30.992188 L 11.074219 24.910156 L 17.828125 22.902344 L 19.074219 22.535156 L 20.976562 21.96875 L 21.84375 21.710938 L 22.222656 21.597656 L 24.417969 20.945312 L 24.421875 20.941406 L 25.089844 20.746094 L 25.671875 20.574219 L 25.828125 20.523438 L 27.574219 20.007812 L 28.820312 19.636719 L 35.582031 17.625 Z M 36.011719 17.5 " fill-opacity="1" fill-rule="evenodd"/></g><g clip-path="url(#5d7f70c0c8)"><path fill="#ffffff" d="M 49.5625 14.453125 C 49.554688 14.441406 49.542969 14.429688 49.53125 14.421875 C 49.53125 14.417969 49.53125 14.417969 49.53125 14.417969 C 49.492188 14.382812 49.445312 14.351562 49.386719 14.324219 C 49.332031 14.296875 49.269531 14.273438 49.199219 14.253906 C 49.167969 14.246094 49.136719 14.238281 49.101562 14.230469 C 48.847656 14.167969 48.507812 14.140625 48.105469 14.128906 C 48.085938 14.128906 48.0625 14.132812 48.042969 14.128906 C 47.9375 14.128906 47.824219 14.128906 47.707031 14.128906 C 47.675781 14.128906 47.648438 14.132812 47.617188 14.132812 C 47.390625 14.136719 47.152344 14.144531 46.902344 14.164062 C 46.769531 14.171875 46.636719 14.179688 46.5 14.191406 C 46.390625 14.199219 46.285156 14.207031 46.171875 14.21875 C 46.121094 14.222656 46.074219 14.226562 46.023438 14.234375 C 45.972656 14.238281 45.925781 14.242188 45.878906 14.246094 L 44.625 12.859375 L 44.472656 12.6875 L 45.070312 12.589844 L 45.003906 11.90625 L 44.996094 11.800781 L 44.992188 11.777344 L 44.261719 11.890625 L 44.070312 11.921875 L 43.828125 11.957031 L 43.832031 11.976562 L 43 11.054688 L 42.828125 10.859375 L 42.378906 10.363281 L 42.160156 10.125 L 41.910156 9.847656 L 41.84375 9.769531 C 41.78125 9.714844 41.710938 9.671875 41.628906 9.648438 C 41.546875 9.617188 41.453125 9.609375 41.355469 9.625 C 41.296875 9.636719 41.242188 9.652344 41.1875 9.679688 C 41.050781 9.742188 40.941406 9.855469 40.875 9.992188 C 40.820312 10.105469 40.792969 10.234375 40.808594 10.363281 C 40.8125 10.398438 40.816406 10.433594 40.824219 10.464844 C 40.867188 10.542969 40.910156 10.621094 40.949219 10.703125 C 40.960938 10.722656 40.96875 10.742188 40.980469 10.761719 C 40.992188 10.792969 41.011719 10.820312 41.023438 10.847656 L 41.785156 12.4375 C 42.097656 13.140625 42.390625 13.847656 42.660156 14.558594 L 40.347656 15.132812 L 39.300781 15.390625 L 39.085938 15.445312 L 38.960938 15.476562 L 38.84375 15.503906 L 38.570312 15.203125 L 38.320312 14.921875 L 37.875 14.429688 L 37.605469 14.132812 L 37.511719 14.027344 L 37.40625 13.914062 L 37.390625 13.894531 L 37.375 13.878906 C 37.320312 13.828125 37.246094 13.804688 37.167969 13.816406 C 37.074219 13.832031 37 13.894531 36.960938 13.972656 C 36.9375 14.019531 36.929688 14.066406 36.929688 14.117188 C 36.929688 14.121094 36.929688 14.128906 36.933594 14.132812 C 36.933594 14.148438 36.933594 14.164062 36.941406 14.175781 C 36.957031 14.210938 36.976562 14.246094 36.992188 14.28125 C 36.996094 14.289062 37 14.296875 37.003906 14.304688 C 37.011719 14.316406 37.015625 14.328125 37.023438 14.339844 L 37.167969 14.640625 L 37.347656 15.023438 C 37.421875 15.183594 37.488281 15.339844 37.554688 15.503906 C 37.554688 15.507812 37.558594 15.507812 37.558594 15.511719 C 37.609375 15.636719 37.660156 15.761719 37.707031 15.890625 L 36.546875 15.824219 L 36.195312 15.808594 L 34.769531 15.746094 L 34.289062 15.726562 L 33.046875 15.671875 L 32.011719 15.628906 L 28.363281 15.46875 L 22.800781 15.226562 L 21.527344 15.171875 L 20.855469 15.140625 L 19.578125 15.085938 L 16.054688 14.933594 L 14.105469 14.847656 L 13.277344 14.8125 L 12.332031 19.375 L 12.328125 19.375 L 12.320312 19.433594 L 12.335938 19.433594 L 12.761719 19.386719 L 13.632812 19.289062 L 14.742188 19.167969 L 15.613281 19.074219 L 19.1875 18.679688 L 19.191406 18.675781 L 19.195312 18.675781 L 19.890625 18.597656 L 20.113281 18.574219 L 20.496094 18.535156 L 21.867188 18.382812 L 22.328125 18.332031 L 22.472656 18.316406 L 28.589844 17.640625 L 30.683594 17.410156 L 30.800781 17.398438 L 32.792969 17.179688 L 32.921875 17.167969 L 34.324219 17.011719 L 35.03125 16.933594 L 35.039062 16.933594 L 35.960938 16.832031 L 36.199219 16.804688 L 36.949219 16.722656 L 37.796875 16.644531 L 37.816406 16.839844 C 37.765625 17.171875 37.703125 17.503906 37.632812 17.839844 L 37.449219 18.605469 C 37.445312 18.617188 37.441406 18.632812 37.441406 18.648438 C 37.4375 18.65625 37.433594 18.667969 37.429688 18.675781 C 37.429688 18.6875 37.425781 18.699219 37.421875 18.714844 C 37.414062 18.738281 37.40625 18.765625 37.402344 18.792969 C 37.398438 18.796875 37.398438 18.804688 37.402344 18.808594 C 37.402344 18.820312 37.402344 18.828125 37.402344 18.835938 C 37.410156 18.890625 37.429688 18.941406 37.460938 18.980469 C 37.515625 19.046875 37.601562 19.082031 37.691406 19.066406 C 37.769531 19.054688 37.839844 19.003906 37.882812 18.941406 L 37.902344 18.898438 L 37.964844 18.78125 L 37.984375 18.75 L 38.054688 18.621094 L 38.109375 18.515625 L 38.253906 18.25 L 38.589844 17.625 L 38.777344 17.277344 L 38.972656 16.914062 L 39.539062 16.878906 L 40.714844 16.804688 L 42.871094 16.671875 L 44.617188 16.5625 L 44.417969 16.625 L 43.878906 16.789062 L 42.796875 17.121094 C 42.695312 17.746094 42.574219 18.378906 42.4375 19.007812 L 42.015625 20.792969 C 42.007812 20.820312 42 20.851562 41.992188 20.882812 C 41.984375 20.90625 41.980469 20.933594 41.972656 20.953125 C 41.949219 21.042969 41.925781 21.132812 41.902344 21.226562 C 41.898438 21.257812 41.898438 21.292969 41.902344 21.328125 C 41.910156 21.421875 41.9375 21.507812 41.984375 21.578125 C 42 21.609375 42.019531 21.640625 42.039062 21.664062 C 42.167969 21.820312 42.367188 21.902344 42.578125 21.867188 C 42.59375 21.863281 42.613281 21.859375 42.628906 21.855469 C 42.789062 21.816406 42.921875 21.714844 43.011719 21.582031 C 43.015625 21.578125 43.019531 21.574219 43.019531 21.570312 L 43.074219 21.472656 L 43.21875 21.203125 L 43.257812 21.125 L 43.425781 20.824219 L 43.890625 19.957031 L 43.96875 19.8125 L 44.480469 18.855469 L 44.484375 18.90625 L 45.648438 18.722656 L 45.597656 18.195312 L 45.582031 18.023438 L 45.582031 18 L 45.570312 17.90625 L 44.9375 18.007812 L 44.949219 17.984375 L 45.109375 17.691406 L 45.601562 16.773438 L 45.621094 16.738281 L 46.046875 15.945312 C 46.097656 15.933594 46.144531 15.921875 46.191406 15.914062 C 46.492188 15.84375 46.78125 15.769531 47.054688 15.699219 C 47.464844 15.589844 47.839844 15.476562 48.167969 15.363281 C 48.1875 15.359375 48.207031 15.351562 48.226562 15.34375 C 48.789062 15.148438 49.210938 14.945312 49.429688 14.75 C 49.5 14.6875 49.546875 14.625 49.574219 14.566406 C 49.578125 14.5625 49.578125 14.5625 49.578125 14.558594 C 49.585938 14.539062 49.589844 14.523438 49.59375 14.507812 C 49.585938 14.488281 49.574219 14.472656 49.5625 14.453125 Z M 49.5625 14.453125 " fill-opacity="1" fill-rule="evenodd"/></g></g></g></g></svg>