<svg xmlns="http://www.w3.org/2000/svg" xmlns:xlink="http://www.w3.org/1999/xlink" width="255" zoomAndPan="magnify" viewBox="0 0 191.25 48" height="64" preserveAspectRatio="xMidYMid meet" version="1.0"><defs><filter x="0%" y="0%" width="100%" height="100%" id="95c861f306"><feColorMatrix values="0 0 0 0 1 0 0 0 0 1 0 0 0 0 1 0 0 0 1 0" color-interpolation-filters="sRGB"/></filter><g/><clipPath id="06cec93bf7"><path d="M 1.585938 0 L 188.929688 0 L 188.929688 47.019531 L 1.585938 47.019531 Z M 1.585938 0 " clip-rule="nonzero"/></clipPath><clipPath id="e7013ef42e"><path d="M 0.585938 0 L 187.929688 0 L 187.929688 47.019531 L 0.585938 47.019531 Z M 0.585938 0 " clip-rule="nonzero"/></clipPath><clipPath id="4b37fd18e4"><path d="M 0.585938 0 L 187.929688 0 L 187.929688 47.019531 L 0.585938 47.019531 Z M 0.585938 0 " clip-rule="nonzero"/></clipPath><clipPath id="67dd2afba1"><path d="M 0.585938 0 L 187.929688 0 L 187.929688 47.019531 L 0.585938 47.019531 Z M 0.585938 0 " clip-rule="nonzero"/></clipPath><linearGradient x1="111.116997" gradientTransform="matrix(0.456691, 0, 0, 0.456906, 36.908555, 5.69106)" y1="-12.455654" x2="111.116997" gradientUnits="userSpaceOnUse" y2="90.454903" id="2355bc90a1"><stop stop-opacity="1" stop-color="rgb(16.859436%, 14.118958%, 23.919678%)" offset="0"/><stop stop-opacity="1" stop-color="rgb(16.859436%, 14.118958%, 23.919678%)" offset="0.0625"/><stop stop-opacity="1" stop-color="rgb(16.96167%, 14.189148%, 24.069214%)" offset="0.09375"/><stop stop-opacity="1" stop-color="rgb(17.13562%, 14.308167%, 24.319458%)" offset="0.101562"/><stop stop-opacity="1" stop-color="rgb(17.274475%, 14.402771%, 24.520874%)" offset="0.109375"/><stop stop-opacity="1" stop-color="rgb(17.41333%, 14.498901%, 24.72229%)" offset="0.117187"/><stop stop-opacity="1" stop-color="rgb(17.552185%, 14.593506%, 24.923706%)" offset="0.125"/><stop stop-opacity="1" stop-color="rgb(17.692566%, 14.68811%, 25.125122%)" offset="0.132812"/><stop stop-opacity="1" stop-color="rgb(17.831421%, 14.784241%, 25.326538%)" offset="0.140625"/><stop stop-opacity="1" stop-color="rgb(17.970276%, 14.878845%, 25.52948%)" offset="0.148438"/><stop stop-opacity="1" stop-color="rgb(18.110657%, 14.974976%, 25.730896%)" offset="0.15625"/><stop stop-opacity="1" stop-color="rgb(18.249512%, 15.06958%, 25.932312%)" offset="0.164062"/><stop stop-opacity="1" stop-color="rgb(18.388367%, 15.16571%, 26.133728%)" offset="0.171875"/><stop stop-opacity="1" stop-color="rgb(18.527222%, 15.260315%, 26.335144%)" offset="0.179688"/><stop stop-opacity="1" stop-color="rgb(18.667603%, 15.356445%, 26.53656%)" offset="0.1875"/><stop stop-opacity="1" stop-color="rgb(18.806458%, 15.45105%, 26.739502%)" offset="0.195312"/><stop stop-opacity="1" stop-color="rgb(18.945312%, 15.545654%, 26.940918%)" offset="0.203125"/><stop stop-opacity="1" stop-color="rgb(19.085693%, 15.641785%, 27.142334%)" offset="0.210938"/><stop stop-opacity="1" stop-color="rgb(19.224548%, 15.736389%, 27.34375%)" offset="0.21875"/><stop stop-opacity="1" stop-color="rgb(19.363403%, 15.83252%, 27.545166%)" offset="0.226562"/><stop stop-opacity="1" stop-color="rgb(19.502258%, 15.927124%, 27.746582%)" offset="0.234375"/><stop stop-opacity="1" stop-color="rgb(19.642639%, 16.023254%, 27.947998%)" offset="0.242187"/><stop stop-opacity="1" stop-color="rgb(19.781494%, 16.117859%, 28.15094%)" offset="0.25"/><stop stop-opacity="1" stop-color="rgb(19.920349%, 16.212463%, 28.352356%)" offset="0.257812"/><stop stop-opacity="1" stop-color="rgb(20.06073%, 16.308594%, 28.553772%)" offset="0.265625"/><stop stop-opacity="1" stop-color="rgb(20.199585%, 16.403198%, 28.755188%)" offset="0.273437"/><stop stop-opacity="1" stop-color="rgb(20.33844%, 16.499329%, 28.956604%)" offset="0.28125"/><stop stop-opacity="1" stop-color="rgb(20.477295%, 16.593933%, 29.15802%)" offset="0.289062"/><stop stop-opacity="1" stop-color="rgb(20.617676%, 16.690063%, 29.360962%)" offset="0.296875"/><stop stop-opacity="1" stop-color="rgb(20.756531%, 16.784668%, 29.562378%)" offset="0.304688"/><stop stop-opacity="1" stop-color="rgb(20.895386%, 16.879272%, 29.763794%)" offset="0.3125"/><stop stop-opacity="1" stop-color="rgb(21.035767%, 16.975403%, 29.96521%)" offset="0.320312"/><stop stop-opacity="1" stop-color="rgb(21.174622%, 17.070007%, 30.166626%)" offset="0.328125"/><stop stop-opacity="1" stop-color="rgb(21.313477%, 17.166138%, 30.368042%)" offset="0.335937"/><stop stop-opacity="1" stop-color="rgb(21.452332%, 17.260742%, 30.569458%)" offset="0.34375"/><stop stop-opacity="1" stop-color="rgb(21.592712%, 17.356873%, 30.7724%)" offset="0.351563"/><stop stop-opacity="1" stop-color="rgb(21.731567%, 17.451477%, 30.973816%)" offset="0.359375"/><stop stop-opacity="1" stop-color="rgb(21.870422%, 17.546082%, 31.175232%)" offset="0.367188"/><stop stop-opacity="1" stop-color="rgb(22.010803%, 17.642212%, 31.376648%)" offset="0.375"/><stop stop-opacity="1" stop-color="rgb(22.149658%, 17.736816%, 31.578064%)" offset="0.382812"/><stop stop-opacity="1" stop-color="rgb(22.288513%, 17.832947%, 31.77948%)" offset="0.390625"/><stop stop-opacity="1" stop-color="rgb(22.428894%, 17.927551%, 31.982422%)" offset="0.398438"/><stop stop-opacity="1" stop-color="rgb(22.567749%, 18.023682%, 32.183838%)" offset="0.40625"/><stop stop-opacity="1" stop-color="rgb(22.706604%, 18.118286%, 32.385254%)" offset="0.414062"/><stop stop-opacity="1" stop-color="rgb(22.845459%, 18.212891%, 32.58667%)" offset="0.421875"/><stop stop-opacity="1" stop-color="rgb(22.98584%, 18.309021%, 32.788086%)" offset="0.429688"/><stop stop-opacity="1" stop-color="rgb(23.124695%, 18.403625%, 32.989502%)" offset="0.4375"/><stop stop-opacity="1" stop-color="rgb(23.26355%, 18.499756%, 33.190918%)" offset="0.445313"/><stop stop-opacity="1" stop-color="rgb(23.403931%, 18.59436%, 33.39386%)" offset="0.453125"/><stop stop-opacity="1" stop-color="rgb(23.542786%, 18.690491%, 33.595276%)" offset="0.460938"/><stop stop-opacity="1" stop-color="rgb(23.681641%, 18.785095%, 33.796692%)" offset="0.46875"/><stop stop-opacity="1" stop-color="rgb(23.820496%, 18.8797%, 33.998108%)" offset="0.476562"/><stop stop-opacity="1" stop-color="rgb(23.960876%, 18.97583%, 34.199524%)" offset="0.484375"/><stop stop-opacity="1" stop-color="rgb(24.099731%, 19.070435%, 34.40094%)" offset="0.492188"/><stop stop-opacity="1" stop-color="rgb(24.238586%, 19.166565%, 34.603882%)" offset="0.5"/><stop stop-opacity="1" stop-color="rgb(24.378967%, 19.261169%, 34.805298%)" offset="0.507812"/><stop stop-opacity="1" stop-color="rgb(24.517822%, 19.3573%, 35.006714%)" offset="0.515625"/><stop stop-opacity="1" stop-color="rgb(24.656677%, 19.451904%, 35.20813%)" offset="0.523438"/><stop stop-opacity="1" stop-color="rgb(24.795532%, 19.548035%, 35.409546%)" offset="0.53125"/><stop stop-opacity="1" stop-color="rgb(24.935913%, 19.642639%, 35.610962%)" offset="0.539063"/><stop stop-opacity="1" stop-color="rgb(25.074768%, 19.737244%, 35.812378%)" offset="0.546875"/><stop stop-opacity="1" stop-color="rgb(25.213623%, 19.833374%, 36.01532%)" offset="0.554688"/><stop stop-opacity="1" stop-color="rgb(25.354004%, 19.927979%, 36.216736%)" offset="0.5625"/><stop stop-opacity="1" stop-color="rgb(25.492859%, 20.024109%, 36.418152%)" offset="0.570312"/><stop stop-opacity="1" stop-color="rgb(25.631714%, 20.118713%, 36.619568%)" offset="0.578125"/><stop stop-opacity="1" stop-color="rgb(25.770569%, 20.214844%, 36.820984%)" offset="0.585938"/><stop stop-opacity="1" stop-color="rgb(25.91095%, 20.309448%, 37.0224%)" offset="0.59375"/><stop stop-opacity="1" stop-color="rgb(26.049805%, 20.404053%, 37.225342%)" offset="0.601562"/><stop stop-opacity="1" stop-color="rgb(26.18866%, 20.500183%, 37.426758%)" offset="0.609375"/><stop stop-opacity="1" stop-color="rgb(26.329041%, 20.594788%, 37.628174%)" offset="0.617188"/><stop stop-opacity="1" stop-color="rgb(26.467896%, 20.690918%, 37.82959%)" offset="0.625"/><stop stop-opacity="1" stop-color="rgb(26.60675%, 20.785522%, 38.031006%)" offset="0.632812"/><stop stop-opacity="1" stop-color="rgb(26.745605%, 20.881653%, 38.232422%)" offset="0.640625"/><stop stop-opacity="1" stop-color="rgb(26.885986%, 20.976257%, 38.433838%)" offset="0.648438"/><stop stop-opacity="1" stop-color="rgb(27.024841%, 21.070862%, 38.63678%)" offset="0.65625"/><stop stop-opacity="1" stop-color="rgb(27.163696%, 21.166992%, 38.838196%)" offset="0.664062"/><stop stop-opacity="1" stop-color="rgb(27.304077%, 21.261597%, 39.039612%)" offset="0.671875"/><stop stop-opacity="1" stop-color="rgb(27.442932%, 21.357727%, 39.241028%)" offset="0.679688"/><stop stop-opacity="1" stop-color="rgb(27.581787%, 21.452332%, 39.442444%)" offset="0.6875"/><stop stop-opacity="1" stop-color="rgb(27.720642%, 21.548462%, 39.64386%)" offset="0.695312"/><stop stop-opacity="1" stop-color="rgb(27.861023%, 21.643066%, 39.846802%)" offset="0.703125"/><stop stop-opacity="1" stop-color="rgb(27.999878%, 21.737671%, 40.048218%)" offset="0.710938"/><stop stop-opacity="1" stop-color="rgb(28.138733%, 21.833801%, 40.249634%)" offset="0.71875"/><stop stop-opacity="1" stop-color="rgb(28.279114%, 21.928406%, 40.45105%)" offset="0.726563"/><stop stop-opacity="1" stop-color="rgb(28.417969%, 22.024536%, 40.652466%)" offset="0.734375"/><stop stop-opacity="1" stop-color="rgb(28.556824%, 22.119141%, 40.853882%)" offset="0.742188"/><stop stop-opacity="1" stop-color="rgb(28.697205%, 22.215271%, 41.055298%)" offset="0.75"/><stop stop-opacity="1" stop-color="rgb(28.83606%, 22.309875%, 41.25824%)" offset="0.757812"/><stop stop-opacity="1" stop-color="rgb(28.974915%, 22.40448%, 41.459656%)" offset="0.765625"/><stop stop-opacity="1" stop-color="rgb(29.11377%, 22.50061%, 41.661072%)" offset="0.773438"/><stop stop-opacity="1" stop-color="rgb(29.25415%, 22.595215%, 41.862488%)" offset="0.78125"/><stop stop-opacity="1" stop-color="rgb(29.393005%, 22.691345%, 42.063904%)" offset="0.789062"/><stop stop-opacity="1" stop-color="rgb(29.53186%, 22.78595%, 42.26532%)" offset="0.796875"/><stop stop-opacity="1" stop-color="rgb(29.672241%, 22.88208%, 42.468262%)" offset="0.804688"/><stop stop-opacity="1" stop-color="rgb(29.811096%, 22.976685%, 42.669678%)" offset="0.8125"/><stop stop-opacity="1" stop-color="rgb(29.949951%, 23.071289%, 42.871094%)" offset="0.820312"/><stop stop-opacity="1" stop-color="rgb(30.088806%, 23.167419%, 43.07251%)" offset="0.828125"/><stop stop-opacity="1" stop-color="rgb(30.229187%, 23.262024%, 43.273926%)" offset="0.835937"/><stop stop-opacity="1" stop-color="rgb(30.368042%, 23.358154%, 43.475342%)" offset="0.84375"/><stop stop-opacity="1" stop-color="rgb(30.506897%, 23.452759%, 43.678284%)" offset="0.851562"/><stop stop-opacity="1" stop-color="rgb(30.647278%, 23.548889%, 43.8797%)" offset="0.859375"/><stop stop-opacity="1" stop-color="rgb(30.786133%, 23.643494%, 44.081116%)" offset="0.867188"/><stop stop-opacity="1" stop-color="rgb(30.924988%, 23.739624%, 44.282532%)" offset="0.875"/><stop stop-opacity="1" stop-color="rgb(31.063843%, 23.834229%, 44.483948%)" offset="0.882812"/><stop stop-opacity="1" stop-color="rgb(31.204224%, 23.928833%, 44.685364%)" offset="0.890625"/><stop stop-opacity="1" stop-color="rgb(31.343079%, 24.024963%, 44.88678%)" offset="0.898438"/><stop stop-opacity="1" stop-color="rgb(31.481934%, 24.119568%, 45.089722%)" offset="0.90625"/><stop stop-opacity="1" stop-color="rgb(31.655884%, 24.238586%, 45.339966%)" offset="0.9375"/><stop stop-opacity="1" stop-color="rgb(31.759644%, 24.308777%, 45.489502%)" offset="1"/></linearGradient><clipPath id="9ffd764a2b"><rect x="0" width="188" y="0" height="48"/></clipPath><clipPath id="5ded2d0090"><path d="M 0.585938 0 L 187.929688 0 L 187.929688 47.019531 L 0.585938 47.019531 Z M 0.585938 0 " clip-rule="nonzero"/></clipPath><clipPath id="6ac5640c49"><rect x="0" width="188" y="0" height="48"/></clipPath><clipPath id="bc76397d2f"><rect x="0" width="188" y="0" height="48"/></clipPath><mask id="f4dda2fe8c"><g filter="url(#95c861f306)"><g transform="matrix(1, 0, 0, 1, 0, 0.000000000000005041)"><g clip-path="url(#bc76397d2f)"><g clip-path="url(#5ded2d0090)"><g transform="matrix(1, 0, 0, 1, 0, 0.000000000000005041)"><g clip-path="url(#6ac5640c49)"><g fill="#000000" fill-opacity="1"><g transform="translate(36.949523, 33.559912)"><g><path d="M 25.484375 0 L 10.359375 0 C 9.078125 0 7.984375 0.21875 7.078125 0.65625 C 6.179688 1.101562 5.734375 1.984375 5.734375 3.296875 C 5.734375 4.503906 6.191406 5.363281 7.109375 5.875 C 8.023438 6.382812 9.320312 6.640625 11 6.640625 C 12.457031 6.640625 13.753906 6.488281 14.890625 6.1875 C 16.035156 5.882812 17.050781 5.484375 17.9375 4.984375 L 20.03125 9.03125 C 18.851562 9.84375 17.457031 10.460938 15.84375 10.890625 C 14.226562 11.328125 12.492188 11.546875 10.640625 11.546875 C 7.679688 11.546875 5.285156 10.859375 3.453125 9.484375 C 1.617188 8.109375 0.703125 6.035156 0.703125 3.265625 C 0.703125 1.554688 1.054688 0.128906 1.765625 -1.015625 C 2.472656 -2.171875 3.410156 -3.054688 4.578125 -3.671875 C 5.742188 -4.285156 7.03125 -4.660156 8.4375 -4.796875 L 5.8125 -10.484375 C 5.445312 -11.296875 5.0625 -11.859375 4.65625 -12.171875 C 4.25 -12.484375 3.613281 -12.640625 2.75 -12.640625 L 2.75 -16.921875 L 16.21875 -16.921875 C 18.207031 -16.921875 19.765625 -16.421875 20.890625 -15.421875 C 22.015625 -14.429688 22.578125 -13.085938 22.578125 -11.390625 C 22.578125 -10.734375 22.488281 -10.097656 22.3125 -9.484375 C 22.144531 -8.867188 21.90625 -8.21875 21.59375 -7.53125 C 21.488281 -7.300781 21.367188 -7.070312 21.234375 -6.84375 C 21.109375 -6.625 20.96875 -6.398438 20.8125 -6.171875 C 20.601562 -5.828125 20.382812 -5.5625 20.15625 -5.375 C 19.9375 -5.195312 19.707031 -5.039062 19.46875 -4.90625 L 25.484375 -4.90625 Z M 17.546875 -10.015625 C 17.546875 -10.796875 17.289062 -11.363281 16.78125 -11.71875 C 16.269531 -12.070312 15.609375 -12.25 14.796875 -12.25 L 10.046875 -12.25 C 10.128906 -12.113281 10.203125 -11.96875 10.265625 -11.8125 C 10.328125 -11.65625 10.398438 -11.488281 10.484375 -11.3125 L 13.1875 -4.90625 L 13.859375 -4.90625 C 14.617188 -4.90625 15.234375 -5.242188 15.703125 -5.921875 C 15.960938 -6.265625 16.191406 -6.613281 16.390625 -6.96875 C 16.585938 -7.320312 16.78125 -7.671875 16.96875 -8.015625 C 17.144531 -8.378906 17.285156 -8.722656 17.390625 -9.046875 C 17.492188 -9.378906 17.546875 -9.703125 17.546875 -10.015625 Z M 17.546875 -10.015625 "/></g></g></g><g fill="#000000" fill-opacity="1"><g transform="translate(61.650939, 33.559912)"><g><path d="M 11.5 0 L -0.78125 0 L -0.78125 -4.90625 L 11.5 -4.90625 Z M 11.5 0 "/></g></g></g><g fill="#000000" fill-opacity="1"><g transform="translate(72.371906, 33.559912)"><g><path d="M -0.78125 0 L -0.78125 -4.90625 L 0.4375 -4.90625 C 1.738281 -4.90625 2.675781 -5.195312 3.25 -5.78125 C 3.832031 -6.375 4.125 -7.335938 4.125 -8.671875 L 4.125 -14.328125 L 9.03125 -14.328125 L 9.03125 -8.328125 C 9.03125 -5.628906 8.316406 -3.566406 6.890625 -2.140625 C 5.460938 -0.710938 3.46875 0 0.90625 0 Z M 2.828125 2.390625 L 7.8125 2.390625 L 7.8125 7.34375 L 2.828125 7.34375 Z M 2.828125 2.390625 "/></g></g></g><g fill="#000000" fill-opacity="1"><g transform="translate(83.681939, 33.559912)"><g><path d="M 12.09375 0 L 10.28125 0 C 8.820312 0 7.535156 -0.257812 6.421875 -0.78125 C 5.304688 -1.3125 4.421875 -2.140625 3.765625 -3.265625 C 3.347656 -3.992188 3.035156 -4.828125 2.828125 -5.765625 C 2.617188 -6.710938 2.515625 -7.984375 2.515625 -9.578125 L 2.515625 -27.953125 L 7.421875 -27.953125 L 7.421875 -9.859375 C 7.421875 -8.835938 7.484375 -8.054688 7.609375 -7.515625 C 7.742188 -6.984375 7.914062 -6.5625 8.125 -6.25 C 8.726562 -5.351562 9.789062 -4.90625 11.3125 -4.90625 L 12.09375 -4.90625 Z M 12.09375 0 "/></g></g></g><g fill="#000000" fill-opacity="1"><g transform="translate(94.991972, 33.559912)"><g><path d="M 11.5 0 L -0.78125 0 L -0.78125 -4.90625 L 11.5 -4.90625 Z M 11.5 0 "/></g></g></g><g fill="#000000" fill-opacity="1"><g transform="translate(105.712939, 33.559912)"><g><path d="M 11.5 0 L -0.78125 0 L -0.78125 -4.90625 L 11.5 -4.90625 Z M 11.5 0 "/></g></g></g><g fill="#000000" fill-opacity="1"><g transform="translate(116.433906, 33.559912)"><g><path d="M 11.5 0 L -0.78125 0 L -0.78125 -4.90625 L 11.5 -4.90625 Z M 11.5 0 "/></g></g></g><g fill="#000000" fill-opacity="1"><g transform="translate(127.154873, 33.559912)"><g><path d="M -0.78125 0 L -0.78125 -4.90625 L 0.4375 -4.90625 C 1.738281 -4.90625 2.675781 -5.195312 3.25 -5.78125 C 3.832031 -6.375 4.125 -7.335938 4.125 -8.671875 L 4.125 -14.328125 L 9.03125 -14.328125 L 9.03125 -8.328125 C 9.03125 -5.628906 8.316406 -3.566406 6.890625 -2.140625 C 5.460938 -0.710938 3.46875 0 0.90625 0 Z M 0.703125 -22.65625 L 5.6875 -22.65625 L 5.6875 -17.703125 L 0.703125 -17.703125 Z M 7.53125 -22.65625 L 12.53125 -22.65625 L 12.53125 -17.703125 L 7.53125 -17.703125 Z M 7.53125 -22.65625 "/></g></g></g></g></g></g></g></g></g></mask><clipPath id="a50438a207"><path d="M 0.585938 0 L 187.929688 0 L 187.929688 47.019531 L 0.585938 47.019531 Z M 0.585938 0 " clip-rule="nonzero"/></clipPath><clipPath id="d36540cc4b"><rect x="0" width="188" y="0" height="48"/></clipPath><clipPath id="8576672f8f"><rect x="0" width="188" y="0" height="48"/></clipPath><clipPath id="3fa98bdcb6"><rect x="0" width="188" y="0" height="48"/></clipPath><clipPath id="b2df55ece7"><path d="M 145 4 L 188.929688 4 L 188.929688 44 L 145 44 Z M 145 4 " clip-rule="nonzero"/></clipPath><clipPath id="9069e9cbc8"><path d="M 0.9375 0.703125 L 39.230469 0.703125 L 39.230469 39.59375 L 0.9375 39.59375 Z M 0.9375 0.703125 " clip-rule="nonzero"/></clipPath><clipPath id="ac17e81140"><path d="M 14.894531 0.703125 L 25.269531 0.703125 C 28.972656 0.703125 32.523438 2.171875 35.140625 4.789062 C 37.757812 7.410156 39.230469 10.960938 39.230469 14.660156 L 39.230469 25.621094 C 39.230469 29.320312 37.757812 32.871094 35.140625 35.492188 C 32.523438 38.109375 28.972656 39.578125 25.269531 39.578125 L 14.894531 39.578125 C 11.191406 39.578125 7.640625 38.109375 5.023438 35.492188 C 2.40625 32.871094 0.9375 29.320312 0.9375 25.621094 L 0.9375 14.660156 C 0.9375 10.960938 2.40625 7.410156 5.023438 4.789062 C 7.640625 2.171875 11.191406 0.703125 14.894531 0.703125 Z M 14.894531 0.703125 " clip-rule="nonzero"/></clipPath><clipPath id="fdec4e10f3"><path d="M 0.9375 0.703125 L 39.230469 0.703125 L 39.230469 39.578125 L 0.9375 39.578125 Z M 0.9375 0.703125 " clip-rule="nonzero"/></clipPath><clipPath id="807b02bd28"><path d="M 14.894531 0.703125 L 25.269531 0.703125 C 28.972656 0.703125 32.523438 2.171875 35.140625 4.789062 C 37.757812 7.410156 39.230469 10.960938 39.230469 14.660156 L 39.230469 25.621094 C 39.230469 29.320312 37.757812 32.871094 35.140625 35.492188 C 32.523438 38.109375 28.972656 39.578125 25.269531 39.578125 L 14.894531 39.578125 C 11.191406 39.578125 7.640625 38.109375 5.023438 35.492188 C 2.40625 32.871094 0.9375 29.320312 0.9375 25.621094 L 0.9375 14.660156 C 0.9375 10.960938 2.40625 7.410156 5.023438 4.789062 C 7.640625 2.171875 11.191406 0.703125 14.894531 0.703125 Z M 14.894531 0.703125 " clip-rule="nonzero"/></clipPath><linearGradient x1="128" gradientTransform="matrix(0.149582, 0, 0, 0.149582, 0.936099, 0.701116)" y1="0.00619652" x2="128" gradientUnits="userSpaceOnUse" y2="259.90302" id="35afb0c645"><stop stop-opacity="1" stop-color="rgb(16.859436%, 14.118958%, 23.919678%)" offset="0"/><stop stop-opacity="1" stop-color="rgb(16.975403%, 14.198303%, 24.087524%)" offset="0.015625"/><stop stop-opacity="1" stop-color="rgb(17.208862%, 14.358521%, 24.424744%)" offset="0.03125"/><stop stop-opacity="1" stop-color="rgb(17.440796%, 14.517212%, 24.761963%)" offset="0.046875"/><stop stop-opacity="1" stop-color="rgb(17.674255%, 14.675903%, 25.099182%)" offset="0.0625"/><stop stop-opacity="1" stop-color="rgb(17.906189%, 14.836121%, 25.436401%)" offset="0.078125"/><stop stop-opacity="1" stop-color="rgb(18.139648%, 14.994812%, 25.772095%)" offset="0.09375"/><stop stop-opacity="1" stop-color="rgb(18.373108%, 15.153503%, 26.109314%)" offset="0.109375"/><stop stop-opacity="1" stop-color="rgb(18.605042%, 15.313721%, 26.446533%)" offset="0.125"/><stop stop-opacity="1" stop-color="rgb(18.838501%, 15.472412%, 26.783752%)" offset="0.140625"/><stop stop-opacity="1" stop-color="rgb(19.070435%, 15.631104%, 27.120972%)" offset="0.15625"/><stop stop-opacity="1" stop-color="rgb(19.303894%, 15.791321%, 27.458191%)" offset="0.171875"/><stop stop-opacity="1" stop-color="rgb(19.535828%, 15.950012%, 27.79541%)" offset="0.1875"/><stop stop-opacity="1" stop-color="rgb(19.769287%, 16.108704%, 28.132629%)" offset="0.203125"/><stop stop-opacity="1" stop-color="rgb(20.002747%, 16.268921%, 28.468323%)" offset="0.21875"/><stop stop-opacity="1" stop-color="rgb(20.23468%, 16.427612%, 28.805542%)" offset="0.234375"/><stop stop-opacity="1" stop-color="rgb(20.46814%, 16.586304%, 29.142761%)" offset="0.25"/><stop stop-opacity="1" stop-color="rgb(20.700073%, 16.746521%, 29.47998%)" offset="0.265625"/><stop stop-opacity="1" stop-color="rgb(20.933533%, 16.905212%, 29.8172%)" offset="0.28125"/><stop stop-opacity="1" stop-color="rgb(21.165466%, 17.06543%, 30.154419%)" offset="0.296875"/><stop stop-opacity="1" stop-color="rgb(21.398926%, 17.224121%, 30.491638%)" offset="0.3125"/><stop stop-opacity="1" stop-color="rgb(21.632385%, 17.382812%, 30.827332%)" offset="0.328125"/><stop stop-opacity="1" stop-color="rgb(21.864319%, 17.54303%, 31.164551%)" offset="0.34375"/><stop stop-opacity="1" stop-color="rgb(22.097778%, 17.701721%, 31.50177%)" offset="0.359375"/><stop stop-opacity="1" stop-color="rgb(22.329712%, 17.860413%, 31.838989%)" offset="0.375"/><stop stop-opacity="1" stop-color="rgb(22.563171%, 18.02063%, 32.176208%)" offset="0.390625"/><stop stop-opacity="1" stop-color="rgb(22.795105%, 18.179321%, 32.513428%)" offset="0.40625"/><stop stop-opacity="1" stop-color="rgb(23.028564%, 18.338013%, 32.850647%)" offset="0.421875"/><stop stop-opacity="1" stop-color="rgb(23.262024%, 18.49823%, 33.187866%)" offset="0.4375"/><stop stop-opacity="1" stop-color="rgb(23.493958%, 18.656921%, 33.52356%)" offset="0.453125"/><stop stop-opacity="1" stop-color="rgb(23.727417%, 18.815613%, 33.860779%)" offset="0.46875"/><stop stop-opacity="1" stop-color="rgb(23.959351%, 18.97583%, 34.197998%)" offset="0.484375"/><stop stop-opacity="1" stop-color="rgb(24.19281%, 19.134521%, 34.535217%)" offset="0.5"/><stop stop-opacity="1" stop-color="rgb(24.424744%, 19.293213%, 34.872437%)" offset="0.515625"/><stop stop-opacity="1" stop-color="rgb(24.658203%, 19.45343%, 35.209656%)" offset="0.53125"/><stop stop-opacity="1" stop-color="rgb(24.891663%, 19.612122%, 35.546875%)" offset="0.546875"/><stop stop-opacity="1" stop-color="rgb(25.123596%, 19.770813%, 35.884094%)" offset="0.5625"/><stop stop-opacity="1" stop-color="rgb(25.357056%, 19.93103%, 36.219788%)" offset="0.578125"/><stop stop-opacity="1" stop-color="rgb(25.588989%, 20.089722%, 36.557007%)" offset="0.59375"/><stop stop-opacity="1" stop-color="rgb(25.822449%, 20.248413%, 36.894226%)" offset="0.609375"/><stop stop-opacity="1" stop-color="rgb(26.054382%, 20.40863%, 37.231445%)" offset="0.625"/><stop stop-opacity="1" stop-color="rgb(26.287842%, 20.567322%, 37.568665%)" offset="0.640625"/><stop stop-opacity="1" stop-color="rgb(26.521301%, 20.726013%, 37.905884%)" offset="0.65625"/><stop stop-opacity="1" stop-color="rgb(26.753235%, 20.88623%, 38.243103%)" offset="0.671875"/><stop stop-opacity="1" stop-color="rgb(26.986694%, 21.044922%, 38.580322%)" offset="0.6875"/><stop stop-opacity="1" stop-color="rgb(27.218628%, 21.203613%, 38.916016%)" offset="0.703125"/><stop stop-opacity="1" stop-color="rgb(27.452087%, 21.363831%, 39.253235%)" offset="0.71875"/><stop stop-opacity="1" stop-color="rgb(27.684021%, 21.522522%, 39.590454%)" offset="0.734375"/><stop stop-opacity="1" stop-color="rgb(27.91748%, 21.681213%, 39.927673%)" offset="0.75"/><stop stop-opacity="1" stop-color="rgb(28.15094%, 21.841431%, 40.264893%)" offset="0.765625"/><stop stop-opacity="1" stop-color="rgb(28.382874%, 22.000122%, 40.602112%)" offset="0.78125"/><stop stop-opacity="1" stop-color="rgb(28.616333%, 22.158813%, 40.939331%)" offset="0.796875"/><stop stop-opacity="1" stop-color="rgb(28.848267%, 22.319031%, 41.275024%)" offset="0.8125"/><stop stop-opacity="1" stop-color="rgb(29.081726%, 22.477722%, 41.612244%)" offset="0.828125"/><stop stop-opacity="1" stop-color="rgb(29.31366%, 22.637939%, 41.949463%)" offset="0.84375"/><stop stop-opacity="1" stop-color="rgb(29.547119%, 22.796631%, 42.286682%)" offset="0.859375"/><stop stop-opacity="1" stop-color="rgb(29.780579%, 22.955322%, 42.623901%)" offset="0.875"/><stop stop-opacity="1" stop-color="rgb(30.012512%, 23.11554%, 42.961121%)" offset="0.890625"/><stop stop-opacity="1" stop-color="rgb(30.245972%, 23.274231%, 43.29834%)" offset="0.90625"/><stop stop-opacity="1" stop-color="rgb(30.477905%, 23.432922%, 43.635559%)" offset="0.921875"/><stop stop-opacity="1" stop-color="rgb(30.711365%, 23.59314%, 43.971252%)" offset="0.9375"/><stop stop-opacity="1" stop-color="rgb(30.943298%, 23.751831%, 44.308472%)" offset="0.953125"/><stop stop-opacity="1" stop-color="rgb(31.176758%, 23.910522%, 44.645691%)" offset="0.96875"/><stop stop-opacity="1" stop-color="rgb(31.410217%, 24.07074%, 44.98291%)" offset="0.984375"/><stop stop-opacity="1" stop-color="rgb(31.642151%, 24.229431%, 45.320129%)" offset="1"/></linearGradient><clipPath id="328782b9d2"><rect x="0" width="40" y="0" height="40"/></clipPath><clipPath id="6e55f74819"><path d="M 17 4.214844 L 24 4.214844 L 24 15 L 17 15 Z M 17 4.214844 " clip-rule="nonzero"/></clipPath><clipPath id="d7f35b94cb"><path d="M 17 16 L 30 16 L 30 36.855469 L 17 36.855469 Z M 17 16 " clip-rule="nonzero"/></clipPath><clipPath id="a2af170d73"><path d="M 5.429688 14 L 32 14 L 32 28 L 5.429688 28 Z M 5.429688 14 " clip-rule="nonzero"/></clipPath><clipPath id="c7d9e3f0be"><path d="M 7 6 L 32.285156 6 L 32.285156 19 L 7 19 Z M 7 6 " clip-rule="nonzero"/></clipPath><clipPath id="1fbc7b0714"><rect x="0" width="44" y="0" height="40"/></clipPath></defs><g clip-path="url(#06cec93bf7)"><g transform="matrix(1, 0, 0, 1, 1, 0.000000000000005041)"><g clip-path="url(#3fa98bdcb6)"><g clip-path="url(#e7013ef42e)"><g transform="matrix(1, 0, 0, 1, 0, 0.000000000000005041)"><g clip-path="url(#8576672f8f)"><g clip-path="url(#4b37fd18e4)"><g mask="url(#f4dda2fe8c)"><g transform="matrix(1, 0, 0, 1, 0, 0.000000000000005041)"><g clip-path="url(#d36540cc4b)"><g clip-path="url(#a50438a207)"><path fill="url(#2355bc90a1)" d="M 0.585938 0 L 0.585938 47.019531 L 187.929688 47.019531 L 187.929688 0 Z M 0.585938 0 " fill-rule="nonzero"/></g></g></g></g></g></g></g></g></g></g></g><g clip-path="url(#b2df55ece7)"><g transform="matrix(1, 0, 0, 1, 145, 4)"><g clip-path="url(#1fbc7b0714)"><g clip-path="url(#9069e9cbc8)"><g clip-path="url(#ac17e81140)"><g transform="matrix(1, 0, 0, 1, -0.000000000000028422, 0.000000000000003553)"><g clip-path="url(#328782b9d2)"><g clip-path="url(#fdec4e10f3)"><g clip-path="url(#807b02bd28)"><path fill="url(#35afb0c645)" d="M 0.9375 0.703125 L 0.9375 39.578125 L 39.230469 39.578125 L 39.230469 0.703125 Z M 0.9375 0.703125 " fill-rule="nonzero"/></g></g></g></g></g></g><g clip-path="url(#6e55f74819)"><path fill="#ffffff" d="M 17.898438 14.371094 L 17.339844 14.375 L 17.339844 5.683594 L 19.5 5.160156 L 23.515625 4.191406 L 23.515625 14.335938 Z M 17.898438 14.371094 " fill-opacity="1" fill-rule="evenodd"/></g><g clip-path="url(#d7f35b94cb)"><path fill="#ffffff" d="M 29.335938 36.320312 C 28.410156 36.683594 26.761719 36.941406 24.753906 36.941406 C 24.578125 36.941406 24.40625 36.9375 24.238281 36.929688 C 23.082031 36.871094 22.027344 36.617188 21.132812 36.199219 C 20.40625 35.863281 19.78125 35.417969 19.292969 34.886719 C 17.953125 33.441406 17.339844 31.171875 17.339844 27.875 L 17.339844 18.359375 L 17.714844 18.25 L 19.886719 17.601562 L 19.894531 17.597656 L 20.554688 17.402344 L 21.132812 17.230469 L 21.289062 17.183594 L 22.347656 16.96875 L 23.515625 16.734375 L 23.515625 27.15625 C 23.515625 29.988281 24.230469 31.570312 26.289062 31.769531 C 26.441406 31.785156 26.597656 31.792969 26.761719 31.792969 C 27.007812 31.792969 27.242188 31.785156 27.460938 31.769531 L 29.242188 31.769531 Z M 29.335938 36.320312 " fill-opacity="1" fill-rule="evenodd"/></g><g clip-path="url(#a2af170d73)"><path fill="#ffffff" d="M 31.375 14.1875 L 29.433594 15.183594 L 29.425781 15.1875 L 28.808594 15.507812 L 27.582031 16.140625 L 27.464844 16.199219 L 25.722656 17.097656 L 24.40625 17.773438 L 23.515625 18.234375 L 18.429688 20.855469 L 18.007812 21.070312 L 17.339844 21.414062 L 16.695312 21.75 L 16.164062 22.019531 L 15.558594 22.332031 L 15.550781 22.335938 L 12.417969 23.949219 L 10.683594 24.84375 L 9.546875 25.425781 L 5.417969 27.554688 L 6.671875 21.527344 L 13.359375 19.539062 L 14.597656 19.175781 L 16.480469 18.617188 L 17.339844 18.359375 L 17.714844 18.25 L 19.886719 17.601562 L 19.894531 17.597656 L 20.554688 17.402344 L 21.132812 17.230469 L 21.289062 17.183594 L 23.015625 16.671875 L 24.25 16.304688 L 30.949219 14.3125 Z M 31.375 14.1875 " fill-opacity="1" fill-rule="evenodd"/></g><g clip-path="url(#c7d9e3f0be)"><path fill="#ffffff" d="M 44.800781 11.171875 C 44.800781 11.171875 44.800781 11.171875 44.800781 11.167969 C 44.792969 11.15625 44.78125 11.144531 44.769531 11.136719 C 44.769531 11.136719 44.769531 11.132812 44.769531 11.132812 C 44.730469 11.101562 44.683594 11.070312 44.625 11.039062 C 44.574219 11.015625 44.511719 10.992188 44.441406 10.972656 C 44.410156 10.960938 44.378906 10.957031 44.34375 10.945312 C 44.09375 10.886719 43.757812 10.859375 43.355469 10.851562 C 43.335938 10.847656 43.3125 10.851562 43.296875 10.851562 C 43.1875 10.847656 43.078125 10.847656 42.960938 10.851562 C 42.933594 10.851562 42.902344 10.851562 42.871094 10.851562 C 42.648438 10.855469 42.410156 10.863281 42.164062 10.882812 C 42.035156 10.890625 41.898438 10.898438 41.765625 10.910156 C 41.660156 10.917969 41.550781 10.925781 41.441406 10.9375 C 41.390625 10.941406 41.34375 10.945312 41.292969 10.949219 C 41.246094 10.953125 41.195312 10.960938 41.148438 10.964844 L 39.910156 9.589844 L 39.757812 9.417969 L 40.347656 9.324219 L 40.285156 8.644531 L 40.273438 8.539062 L 40.273438 8.515625 L 39.550781 8.628906 L 39.359375 8.660156 L 39.121094 8.699219 L 39.121094 8.714844 L 38.296875 7.800781 L 38.125 7.609375 L 37.683594 7.117188 L 37.464844 6.882812 L 37.21875 6.609375 L 37.152344 6.53125 C 37.089844 6.472656 37.019531 6.433594 36.941406 6.40625 C 36.859375 6.378906 36.765625 6.371094 36.667969 6.386719 C 36.609375 6.398438 36.554688 6.414062 36.503906 6.441406 C 36.367188 6.503906 36.257812 6.617188 36.195312 6.75 C 36.136719 6.859375 36.113281 6.988281 36.128906 7.117188 C 36.128906 7.152344 36.136719 7.1875 36.144531 7.214844 C 36.183594 7.296875 36.226562 7.375 36.265625 7.453125 C 36.277344 7.472656 36.285156 7.492188 36.296875 7.515625 C 36.3125 7.542969 36.328125 7.570312 36.339844 7.59375 L 37.09375 9.171875 C 37.40625 9.871094 37.695312 10.570312 37.960938 11.273438 L 35.671875 11.84375 L 34.632812 12.097656 L 34.421875 12.152344 L 34.296875 12.183594 L 34.179688 12.210938 L 33.910156 11.910156 L 33.660156 11.636719 L 33.21875 11.144531 L 32.953125 10.851562 L 32.863281 10.75 L 32.757812 10.632812 L 32.726562 10.601562 C 32.671875 10.550781 32.597656 10.527344 32.519531 10.539062 C 32.429688 10.554688 32.355469 10.613281 32.316406 10.695312 C 32.292969 10.738281 32.28125 10.785156 32.285156 10.835938 C 32.285156 10.839844 32.285156 10.847656 32.285156 10.851562 C 32.289062 10.867188 32.289062 10.882812 32.292969 10.894531 C 32.3125 10.929688 32.328125 10.960938 32.347656 10.996094 C 32.347656 11.003906 32.355469 11.015625 32.359375 11.023438 C 32.363281 11.035156 32.371094 11.046875 32.378906 11.058594 L 32.519531 11.355469 L 32.699219 11.734375 C 32.769531 11.890625 32.839844 12.050781 32.902344 12.207031 C 32.90625 12.210938 32.90625 12.214844 32.910156 12.21875 C 32.957031 12.339844 33.007812 12.46875 33.054688 12.589844 L 31.902344 12.527344 L 31.558594 12.511719 L 30.144531 12.449219 L 29.667969 12.429688 L 28.441406 12.378906 L 27.410156 12.332031 L 23.796875 12.175781 L 18.289062 11.933594 L 17.027344 11.878906 L 16.359375 11.851562 L 15.09375 11.796875 L 11.601562 11.644531 L 9.671875 11.5625 L 8.855469 11.527344 L 7.914062 16.046875 L 7.902344 16.101562 L 7.921875 16.101562 L 8.34375 16.054688 L 9.203125 15.960938 L 10.304688 15.839844 L 11.167969 15.746094 L 14.707031 15.355469 L 14.710938 15.351562 L 14.714844 15.351562 L 15.402344 15.277344 L 15.625 15.253906 L 16.003906 15.210938 L 17.363281 15.0625 L 17.820312 15.011719 L 17.964844 14.996094 L 24.023438 14.328125 L 26.097656 14.097656 L 26.214844 14.085938 L 28.183594 13.871094 L 28.316406 13.859375 L 29.703125 13.703125 L 30.402344 13.625 L 30.410156 13.625 L 31.324219 13.523438 L 31.558594 13.5 L 32.304688 13.417969 L 33.144531 13.339844 L 33.164062 13.535156 C 33.113281 13.863281 33.050781 14.195312 32.980469 14.527344 L 32.800781 15.28125 C 32.796875 15.296875 32.792969 15.308594 32.789062 15.324219 C 32.789062 15.335938 32.785156 15.34375 32.78125 15.351562 C 32.777344 15.367188 32.773438 15.378906 32.773438 15.390625 C 32.765625 15.414062 32.757812 15.441406 32.75 15.46875 C 32.75 15.472656 32.75 15.480469 32.75 15.484375 C 32.75 15.496094 32.75 15.503906 32.753906 15.511719 C 32.757812 15.566406 32.777344 15.617188 32.8125 15.652344 C 32.863281 15.71875 32.949219 15.753906 33.039062 15.742188 C 33.117188 15.726562 33.183594 15.679688 33.226562 15.613281 L 33.25 15.574219 L 33.3125 15.457031 L 33.328125 15.425781 L 33.398438 15.296875 L 33.457031 15.191406 L 33.597656 14.929688 L 33.929688 14.3125 L 34.113281 13.964844 L 34.308594 13.609375 L 34.867188 13.574219 L 36.035156 13.5 L 38.171875 13.367188 L 39.898438 13.261719 L 39.703125 13.320312 L 38.097656 13.8125 C 37.996094 14.433594 37.875 15.058594 37.742188 15.683594 L 37.324219 17.449219 C 37.316406 17.480469 37.304688 17.507812 37.296875 17.539062 C 37.292969 17.5625 37.285156 17.585938 37.28125 17.609375 C 37.257812 17.699219 37.234375 17.789062 37.210938 17.878906 C 37.207031 17.914062 37.207031 17.945312 37.210938 17.980469 C 37.21875 18.074219 37.246094 18.15625 37.292969 18.230469 C 37.308594 18.257812 37.328125 18.289062 37.347656 18.3125 C 37.472656 18.464844 37.671875 18.546875 37.882812 18.511719 C 37.898438 18.511719 37.914062 18.507812 37.929688 18.503906 C 38.089844 18.460938 38.222656 18.363281 38.308594 18.230469 C 38.3125 18.226562 38.316406 18.222656 38.320312 18.21875 L 38.371094 18.121094 L 38.515625 17.855469 L 38.554688 17.78125 L 38.71875 17.480469 L 39.179688 16.625 L 39.257812 16.480469 L 39.765625 15.53125 L 39.769531 15.578125 L 40.921875 15.398438 L 40.871094 14.875 L 40.859375 14.707031 L 40.855469 14.6875 L 40.855469 14.683594 L 40.847656 14.589844 L 40.21875 14.691406 L 40.230469 14.667969 L 40.386719 14.375 L 40.878906 13.464844 L 40.894531 13.433594 L 41.316406 12.648438 C 41.367188 12.636719 41.410156 12.625 41.457031 12.613281 C 41.757812 12.546875 42.042969 12.476562 42.316406 12.402344 C 42.722656 12.296875 43.09375 12.183594 43.417969 12.070312 C 43.4375 12.066406 43.457031 12.058594 43.476562 12.054688 C 44.03125 11.855469 44.453125 11.65625 44.667969 11.460938 C 44.738281 11.402344 44.785156 11.339844 44.8125 11.28125 C 44.8125 11.277344 44.816406 11.277344 44.816406 11.273438 C 44.824219 11.253906 44.828125 11.238281 44.832031 11.222656 C 44.824219 11.203125 44.8125 11.1875 44.800781 11.171875 Z M 44.800781 11.171875 " fill-opacity="1" fill-rule="evenodd"/></g></g></g></g></svg>